<svg width="59" height="59" viewBox="0 0 59 59" fill="none" xmlns="http://www.w3.org/2000/svg">
<path d="M57.1992 39.7109L47.3394 19.095C47.2664 18.9424 47.1517 18.8135 47.0085 18.7233C46.8654 18.6331 46.6996 18.5852 46.5305 18.5852H16.6778L13.5899 10.2873L17.4363 8.36468C17.3368 8.97639 17.3655 9.60211 17.5205 10.2021C17.6756 10.8022 17.9537 11.3634 18.3372 11.8503L21.6648 16.0755C21.7377 16.168 21.8281 16.2452 21.9308 16.3028C22.0336 16.3604 22.1467 16.3971 22.2636 16.4109C22.3806 16.4248 22.4991 16.4154 22.6125 16.3834C22.7258 16.3514 22.8317 16.2974 22.9242 16.2245L28.5577 11.7887C28.6502 11.7158 28.7275 11.6254 28.785 11.5227C28.8426 11.4199 28.8793 11.3069 28.8932 11.1899C28.907 11.0729 28.8977 10.9544 28.8657 10.8411C28.8337 10.7277 28.7797 10.6218 28.7067 10.5293L25.379 6.30421C24.6549 5.38449 23.5996 4.78474 22.4389 4.63334C21.2782 4.48195 20.1043 4.79092 19.1685 5.49415L12.0684 9.04366C11.8708 9.14286 11.7168 9.31145 11.6357 9.51714C11.5547 9.72283 11.5523 9.95118 11.6292 10.1585L14.7652 18.5852H12.4695C12.3003 18.5852 12.1346 18.6331 11.9914 18.7233C11.8483 18.8135 11.7336 18.9424 11.6605 19.095L1.80077 39.7109C1.74349 39.8317 1.71364 39.9637 1.71338 40.0974V42.7864C1.71338 43.0242 1.80781 43.2521 1.97591 43.4202C2.14401 43.5883 2.372 43.6828 2.60972 43.6828H5.29874V53.5425C5.29874 53.7803 5.39318 54.0082 5.56128 54.1763C5.72937 54.3444 5.95736 54.4389 6.19509 54.4389H9.78045C10.0182 54.4389 10.2462 54.3444 10.4143 54.1763C10.5824 54.0082 10.6768 53.7803 10.6768 53.5425V43.6828H48.3231V53.5425C48.3231 53.7803 48.4176 54.0082 48.5857 54.1763C48.7538 54.3444 48.9818 54.4389 49.2195 54.4389H52.8048C53.0426 54.4389 53.2706 54.3444 53.4387 54.1763C53.6068 54.0082 53.7012 53.7803 53.7012 53.5425V43.6828H56.3902C56.6279 43.6828 56.8559 43.5883 57.024 43.4202C57.1921 43.2521 57.2866 43.0242 57.2866 42.7864V40.0974C57.2863 39.9637 57.2564 39.8317 57.1992 39.7109ZM20.1948 6.96415C20.6669 6.59077 21.2512 6.38783 21.8531 6.38825C21.9609 6.38789 22.0687 6.39425 22.1757 6.40729C22.5267 6.44758 22.8661 6.55729 23.1743 6.73002C23.4824 6.90276 23.7532 7.13507 23.9707 7.41344L26.7437 10.9338L22.5186 14.2615L19.7455 10.7411C19.3052 10.1803 19.1053 9.46777 19.1895 8.75976C19.2737 8.05175 19.6353 7.40603 20.1948 6.96415ZM13.0342 20.3779H45.9658L54.9684 39.2011H4.03154L13.0342 20.3779ZM8.88411 52.6462H7.09143V43.6828H8.88411V52.6462ZM51.9085 52.6462H50.1158V43.6828H51.9085V52.6462ZM55.4939 41.8901H3.50606V40.9938H55.4939V41.8901Z" fill="#ECEEF1"/>
<path d="M15.1586 36.4752H43.8415C43.9939 36.4752 44.1438 36.4364 44.277 36.3623C44.4102 36.2883 44.5223 36.1816 44.6028 36.0522C44.6832 35.9228 44.7294 35.775 44.7369 35.6228C44.7443 35.4706 44.7129 35.319 44.6455 35.1823L39.3868 24.5233C39.3128 24.3732 39.1983 24.2469 39.0562 24.1586C38.9142 24.0702 38.7502 24.0234 38.5829 24.0234H20.4172C20.2499 24.0234 20.086 24.0702 19.9439 24.1586C19.8018 24.2469 19.6873 24.3732 19.6133 24.5233L14.3547 35.1823C14.2873 35.319 14.2558 35.4706 14.2633 35.6228C14.2708 35.775 14.3169 35.9228 14.3974 36.0522C14.4778 36.1816 14.59 36.2883 14.7231 36.3623C14.8563 36.4364 15.0062 36.4752 15.1586 36.4752ZM20.9744 25.8161H38.0257L42.3999 34.6825H16.6002L20.9744 25.8161Z" fill="#FFEC6B"/>
</svg>
