<svg width="57" height="57" viewBox="0 0 57 57" fill="none" xmlns="http://www.w3.org/2000/svg">
<path d="M48.1483 9.15543C45.5731 6.55267 42.5089 4.48453 39.1318 3.06987C35.7547 1.65522 32.1313 0.921947 28.4699 0.912208C24.8085 0.902468 21.1812 1.61645 17.7967 3.01312C14.4121 4.40979 11.3369 6.4616 8.74788 9.05062C6.15886 11.6396 4.10705 14.7148 2.71038 18.0994C1.31372 21.484 0.599734 25.1112 0.609473 28.7726C0.619213 32.434 1.35248 36.0574 2.76714 39.4345C4.18179 42.8116 6.24993 45.8759 8.85269 48.4511C11.4279 51.0538 14.4921 53.122 17.8692 54.5366C21.2463 55.9513 24.8697 56.6845 28.5311 56.6943C32.1925 56.704 35.8198 55.99 39.2044 54.5934C42.5889 53.1967 45.6641 51.1449 48.2531 48.5559C50.8422 45.9669 52.894 42.8917 54.2906 39.5071C55.6873 36.1225 56.4013 32.4953 56.3915 28.8339C56.3818 25.1724 55.6485 21.5491 54.2339 18.172C52.8192 14.7949 50.7511 11.7306 48.1483 9.15543ZM46.8811 47.1839C42.0063 52.0587 35.3946 54.7974 28.5005 54.7974C21.6064 54.7974 14.9947 52.0587 10.1199 47.1839C5.24505 42.309 2.5064 35.6973 2.5064 28.8032C2.5064 21.9092 5.24505 15.2975 10.1199 10.4226C14.9947 5.54779 21.6064 2.80913 28.5005 2.80913C35.3946 2.80913 42.0063 5.54779 46.8811 10.4226C51.756 15.2975 54.4946 21.9092 54.4946 28.8032C54.4946 35.6973 51.756 42.309 46.8811 47.1839Z" fill="#ECEEF1"/>
<path d="M52.4732 28.2063C52.3634 28.0842 49.745 25.1812 45.4885 22.2412C41.5367 19.5107 35.38 16.2559 28.5006 16.2559C21.6211 16.2559 15.4644 19.5107 11.5126 22.2412C7.25613 25.1812 4.63769 28.0842 4.52789 28.2063C4.3807 28.3709 4.29932 28.5839 4.29932 28.8047C4.29932 29.0254 4.3807 29.2384 4.52789 29.403C4.63769 29.5251 7.25613 32.4281 11.5126 35.3681C15.4644 38.0986 21.6211 41.3535 28.5006 41.3535C35.38 41.3535 41.5367 38.0986 45.4885 35.3681C49.745 32.4281 52.3634 29.5251 52.4732 29.403C52.6204 29.2384 52.7018 29.0254 52.7018 28.8047C52.7018 28.5839 52.6204 28.3709 52.4732 28.2063ZM44.4342 33.9183C40.6987 36.493 34.9027 39.5608 28.5006 39.5608C22.0984 39.5608 16.3025 36.493 12.567 33.9183C10.3719 32.4034 8.31943 30.6918 6.43486 28.8047C8.31943 26.9175 10.3719 25.2059 12.567 23.691C16.3025 21.1163 22.0984 18.0485 28.5006 18.0485C34.9027 18.0485 40.6987 21.1163 44.4342 23.691C46.6292 25.2059 48.6817 26.9175 50.5663 28.8047C48.6817 30.6918 46.6292 32.4034 44.4342 33.9183Z" fill="#ECEEF1"/>
<path d="M28.5005 19.8398C26.7277 19.8398 24.9948 20.3655 23.5207 21.3505C22.0467 22.3354 20.8978 23.7353 20.2194 25.3731C19.541 27.011 19.3635 28.8132 19.7093 30.5519C20.0552 32.2907 20.9089 33.8878 22.1624 35.1413C23.416 36.3949 25.0131 37.2486 26.7519 37.5944C28.4906 37.9403 30.2928 37.7628 31.9307 37.0844C33.5685 36.406 34.9684 35.2571 35.9533 33.7831C36.9383 32.309 37.4639 30.5761 37.4639 28.8033C37.4613 26.4268 36.516 24.1485 34.8356 22.4681C33.1553 20.7878 30.8769 19.8425 28.5005 19.8398ZM28.5005 35.974C27.0823 35.974 25.6959 35.5534 24.5167 34.7655C23.3375 33.9776 22.4184 32.8577 21.8756 31.5474C21.3329 30.2371 21.1909 28.7953 21.4676 27.4043C21.7443 26.0133 22.4272 24.7356 23.4301 23.7328C24.4329 22.7299 25.7106 22.047 27.1016 21.7703C28.4926 21.4936 29.9344 21.6356 31.2447 22.1784C32.5549 22.7211 33.6748 23.6402 34.4628 24.8194C35.2507 25.9986 35.6713 27.385 35.6713 28.8033C35.6691 30.7044 34.913 32.5271 33.5686 33.8714C32.2243 35.2157 30.4017 35.9719 28.5005 35.974Z" fill="#FFEC6B"/>
<path d="M28.5004 25.2188C27.7913 25.2188 27.0981 25.429 26.5085 25.823C25.9189 26.217 25.4593 26.7769 25.188 27.4321C24.9166 28.0872 24.8456 28.8081 24.9839 29.5036C25.1223 30.1991 25.4637 30.8379 25.9652 31.3393C26.4666 31.8408 27.1054 32.1822 27.8009 32.3206C28.4964 32.4589 29.2173 32.3879 29.8725 32.1165C30.5276 31.8452 31.0875 31.3856 31.4815 30.796C31.8755 30.2064 32.0858 29.5132 32.0858 28.8041C32.0847 27.8535 31.7066 26.9422 31.0344 26.2701C30.3623 25.5979 29.451 25.2198 28.5004 25.2188ZM28.5004 30.5968C28.1458 30.5968 27.7992 30.4917 27.5044 30.2947C27.2096 30.0977 26.9799 29.8177 26.8442 29.4901C26.7085 29.1626 26.673 28.8021 26.7422 28.4544C26.8113 28.1066 26.9821 27.7872 27.2328 27.5365C27.4835 27.2858 27.8029 27.115 28.1507 27.0459C28.4984 26.9767 28.8589 27.0122 29.1864 27.1479C29.514 27.2836 29.794 27.5133 29.991 27.8081C30.1879 28.103 30.2931 28.4496 30.2931 28.8041C30.2925 29.2794 30.1035 29.735 29.7674 30.0711C29.4313 30.4072 28.9757 30.5962 28.5004 30.5968Z" fill="#ECEEF1"/>
<path d="M28.5003 12.6692C28.7381 12.6692 28.9661 12.5748 29.1342 12.4067C29.3022 12.2386 29.3967 12.0106 29.3967 11.7729V9.08384C29.3967 8.84612 29.3022 8.61813 29.1342 8.45003C28.9661 8.28194 28.7381 8.1875 28.5003 8.1875C28.2626 8.1875 28.0346 8.28194 27.8665 8.45003C27.6984 8.61813 27.604 8.84612 27.604 9.08384V11.7729C27.604 12.0106 27.6984 12.2386 27.8665 12.4067C28.0346 12.5748 28.2626 12.6692 28.5003 12.6692Z" fill="#ECEEF1"/>
<path d="M28.5003 44.9375C28.2626 44.9375 28.0346 45.0319 27.8665 45.2C27.6984 45.3681 27.604 45.5961 27.604 45.8338V48.5229C27.604 48.7606 27.6984 48.9886 27.8665 49.1567C28.0346 49.3248 28.2626 49.4192 28.5003 49.4192C28.7381 49.4192 28.9661 49.3248 29.1342 49.1567C29.3022 48.9886 29.3967 48.7606 29.3967 48.5229V45.8338C29.3967 45.5961 29.3022 45.3681 29.1342 45.2C28.9661 45.0319 28.7381 44.9375 28.5003 44.9375Z" fill="#ECEEF1"/>
<path d="M15.8245 17.3945C15.9926 17.5626 16.2206 17.657 16.4584 17.657C16.6961 17.6569 16.9241 17.5625 17.0922 17.3944C17.2603 17.2262 17.3547 16.9982 17.3547 16.7605C17.3546 16.5228 17.2602 16.2948 17.0921 16.1267L15.1907 14.2253C15.1076 14.1413 15.0088 14.0745 14.8998 14.0288C14.7909 13.9831 14.6739 13.9593 14.5558 13.959C14.4376 13.9586 14.3205 13.9816 14.2113 14.0267C14.102 14.0718 14.0028 14.138 13.9192 14.2215C13.8357 14.3051 13.7695 14.4044 13.7244 14.5136C13.6794 14.6228 13.6564 14.7399 13.6567 14.8581C13.6571 14.9763 13.6808 15.0932 13.7266 15.2021C13.7723 15.3111 13.8391 15.41 13.9232 15.493L15.8245 17.3945Z" fill="#ECEEF1"/>
<path d="M41.1766 40.2117C41.0085 40.0436 40.7805 39.9492 40.5428 39.9492C40.305 39.9492 40.0771 40.0437 39.909 40.2118C39.7409 40.3799 39.6465 40.6079 39.6465 40.8457C39.6465 41.0834 39.741 41.3114 39.9091 41.4795L41.8104 43.3808C41.8935 43.4649 41.9923 43.5317 42.1013 43.5774C42.2103 43.6231 42.3272 43.6468 42.4454 43.6472C42.5635 43.6475 42.6806 43.6245 42.7898 43.5795C42.8991 43.5344 42.9983 43.4682 43.0819 43.3846C43.1654 43.3011 43.2316 43.2018 43.2767 43.0926C43.3217 42.9833 43.3447 42.8662 43.3444 42.7481C43.344 42.6299 43.3203 42.513 43.2746 42.404C43.2288 42.2951 43.162 42.1962 43.078 42.1132L41.1766 40.2117Z" fill="#ECEEF1"/>
<path d="M40.5429 17.657C40.6606 17.6571 40.7772 17.634 40.886 17.589C40.9947 17.5439 41.0935 17.4778 41.1767 17.3945L43.0781 15.493C43.1621 15.41 43.2289 15.3111 43.2747 15.2021C43.3204 15.0932 43.3441 14.9763 43.3445 14.8581C43.3448 14.7399 43.3218 14.6228 43.2768 14.5136C43.2317 14.4044 43.1655 14.3051 43.082 14.2215C42.9984 14.138 42.8992 14.0718 42.7899 14.0267C42.6807 13.9816 42.5636 13.9586 42.4454 13.959C42.3273 13.9593 42.2104 13.9831 42.1014 14.0288C41.9924 14.0745 41.8936 14.1413 41.8105 14.2253L39.9091 16.1267C39.7838 16.2521 39.6983 16.4118 39.6637 16.5857C39.6291 16.7595 39.6469 16.9398 39.7147 17.1036C39.7825 17.2674 39.8974 17.4074 40.0448 17.5059C40.1922 17.6044 40.3656 17.657 40.5429 17.657Z" fill="#ECEEF1"/>
<path d="M15.8245 40.2117L13.9232 42.1132C13.8391 42.1962 13.7723 42.2951 13.7266 42.404C13.6808 42.513 13.6571 42.6299 13.6567 42.7481C13.6564 42.8662 13.6794 42.9833 13.7244 43.0926C13.7695 43.2018 13.8357 43.3011 13.9192 43.3846C14.0028 43.4682 14.102 43.5344 14.2113 43.5795C14.3205 43.6245 14.4376 43.6475 14.5558 43.6472C14.6739 43.6468 14.7909 43.6231 14.8998 43.5774C15.0088 43.5317 15.1076 43.4649 15.1907 43.3808L17.0921 41.4795C17.2602 41.3114 17.3546 41.0834 17.3547 40.8457C17.3547 40.6079 17.2603 40.3799 17.0922 40.2118C16.9241 40.0437 16.6961 39.9492 16.4584 39.9492C16.2206 39.9492 15.9926 40.0436 15.8245 40.2117Z" fill="#ECEEF1"/>
</svg>
