<svg width="33" height="56" viewBox="0 0 33 56" fill="none" xmlns="http://www.w3.org/2000/svg">
<path d="M29.4973 0.214844H3.50341C2.67165 0.215763 1.87423 0.546583 1.28609 1.13472C0.697951 1.72286 0.36713 2.52029 0.366211 3.35204V52.6508C0.36713 53.4826 0.697951 54.28 1.28609 54.8681C1.87423 55.4563 2.67165 55.7871 3.50341 55.788H29.4973C30.3291 55.7871 31.1265 55.4563 31.7146 54.8681C32.3028 54.28 32.6336 53.4826 32.6345 52.6508V3.35204C32.6336 2.52029 32.3028 1.72286 31.7146 1.13472C31.1265 0.546583 30.3291 0.215763 29.4973 0.214844ZM21.6263 2.00753L21.1781 3.80021H11.8226L11.3744 2.00753H21.6263ZM30.8418 52.6508C30.8415 53.0073 30.6998 53.3491 30.4477 53.6012C30.1956 53.8533 29.8538 53.995 29.4973 53.9953H3.50341C3.14691 53.995 2.8051 53.8533 2.55302 53.6012C2.30094 53.3491 2.15919 53.0073 2.15889 52.6508V3.35204C2.15919 2.99554 2.30094 2.65373 2.55302 2.40165C2.8051 2.14957 3.14691 2.00782 3.50341 2.00753H9.5257L10.2529 4.91391C10.3013 5.10783 10.4132 5.27998 10.5708 5.403C10.7283 5.52602 10.9224 5.59286 11.1223 5.59289H21.8784C22.0783 5.59286 22.2724 5.52602 22.43 5.403C22.5875 5.27998 22.6994 5.10783 22.7479 4.91391L23.475 2.00753H29.4973C29.8538 2.00782 30.1956 2.14957 30.4477 2.40165C30.6998 2.65373 30.8415 2.99554 30.8418 3.35204V52.6508Z" fill="#ECEEF1"/>
<path d="M19.1894 51.3066H13.8114C13.5737 51.3066 13.3457 51.4011 13.1776 51.5692C13.0095 51.7373 12.915 51.9653 12.915 52.203C12.915 52.4407 13.0095 52.6687 13.1776 52.8368C13.3457 53.0049 13.5737 53.0993 13.8114 53.0993H19.1894C19.4272 53.0993 19.6551 53.0049 19.8232 52.8368C19.9913 52.6687 20.0858 52.4407 20.0858 52.203C20.0858 51.9653 19.9913 51.7373 19.8232 51.5692C19.6551 51.4011 19.4272 51.3066 19.1894 51.3066Z" fill="#ECEEF1"/>
<path d="M16.5004 7.38477C14.4285 7.3841 12.4091 8.03634 10.7291 9.24883C9.049 10.4613 7.79374 12.1724 7.14161 14.139C6.48947 16.1055 6.47362 18.2276 7.09631 20.2037C7.719 22.1798 8.94856 23.9094 10.6103 25.1469C10.6548 25.1868 10.7032 25.2221 10.7549 25.2522C12.4284 26.4562 14.438 27.1041 16.4997 27.1043C18.5614 27.1045 20.571 26.457 22.2448 25.2533C22.296 25.2231 22.3441 25.1878 22.3883 25.148C24.0505 23.9109 25.2807 22.1814 25.9038 20.2053C26.527 18.2291 26.5115 16.1068 25.8596 14.14C25.2076 12.1731 23.9524 10.4618 22.2723 9.24907C20.5921 8.03638 18.5725 7.38404 16.5004 7.38477ZM20.9597 23.9626C19.6389 24.8423 18.0874 25.3116 16.5004 25.3116C14.9135 25.3116 13.3619 24.8423 12.0411 23.9626C12.0265 23.8158 12.0187 23.6679 12.0187 23.5189C12.0187 22.3303 12.4909 21.1903 13.3314 20.3499C14.1718 19.5094 15.3118 19.0372 16.5004 19.0372C17.689 19.0372 18.829 19.5094 19.6695 20.3499C20.5099 21.1903 20.9821 22.3303 20.9821 23.5189C20.9821 23.6679 20.9743 23.8158 20.9597 23.9626ZM14.7077 15.4518C14.7077 15.0973 14.8129 14.7507 15.0098 14.4559C15.2068 14.1611 15.4868 13.9313 15.8144 13.7956C16.1419 13.6599 16.5024 13.6244 16.8501 13.6936C17.1979 13.7628 17.5173 13.9335 17.768 14.1842C18.0187 14.4349 18.1895 14.7544 18.2586 15.1021C18.3278 15.4498 18.2923 15.8103 18.1566 16.1379C18.021 16.4654 17.7912 16.7454 17.4964 16.9424C17.2016 17.1394 16.855 17.2445 16.5004 17.2445C16.0252 17.2439 15.5695 17.0548 15.2335 16.7188C14.8974 16.3827 14.7083 15.9271 14.7077 15.4518ZM22.6773 22.4254C22.5006 21.4369 22.09 20.5051 21.4797 19.7077C20.8694 18.9103 20.0772 18.2705 19.1693 17.8417C19.6317 17.3262 19.935 16.6877 20.0424 16.0035C20.1498 15.3193 20.0567 14.6187 19.7745 13.9862C19.4922 13.3538 19.0328 12.8166 18.4518 12.4397C17.8707 12.0628 17.193 11.8622 16.5004 11.8622C15.8078 11.8622 15.1301 12.0628 14.5491 12.4397C13.968 12.8166 13.5086 13.3538 13.2264 13.9862C12.9441 14.6187 12.851 15.3193 12.9584 16.0035C13.0658 16.6877 13.3691 17.3262 13.8316 17.8417C12.9236 18.2705 12.1314 18.9103 11.5211 19.7077C10.9108 20.5051 10.5002 21.4369 10.3235 22.4254C9.33554 21.2493 8.70388 19.8156 8.50278 18.2928C8.30167 16.7701 8.53947 15.2215 9.18823 13.8293C9.83698 12.437 10.8697 11.2589 12.165 10.4335C13.4604 9.60803 14.9644 9.16952 16.5004 9.16952C18.0364 9.16952 19.5405 9.60803 20.8358 10.4335C22.1311 11.2589 23.1638 12.437 23.8126 13.8293C24.4613 15.2215 24.6992 16.7701 24.498 18.2928C24.2969 19.8156 23.6653 21.2493 22.6773 22.4254Z" fill="#ECEEF1"/>
<path d="M25.4638 28.8984H7.53697C7.29924 28.8984 7.07125 28.9929 6.90316 29.161C6.73506 29.3291 6.64062 29.5571 6.64062 29.7948V33.3801C6.64062 33.6179 6.73506 33.8459 6.90316 34.014C7.07125 34.1821 7.29924 34.2765 7.53697 34.2765H25.4638C25.7015 34.2765 25.9295 34.1821 26.0976 34.014C26.2657 33.8459 26.3601 33.6179 26.3601 33.3801V29.7948C26.3601 29.5571 26.2657 29.3291 26.0976 29.161C25.9295 28.9929 25.7015 28.8984 25.4638 28.8984ZM24.5675 32.4838H8.43331V30.6911H24.5675V32.4838Z" fill="#FFEC6B"/>
<path d="M25.4638 43.2383H7.53697C7.29924 43.2383 7.07125 43.3327 6.90316 43.5008C6.73506 43.6689 6.64062 43.8969 6.64062 44.1346V47.72C6.64062 47.9577 6.73506 48.1857 6.90316 48.3538C7.07125 48.5219 7.29924 48.6163 7.53697 48.6163H25.4638C25.7015 48.6163 25.9295 48.5219 26.0976 48.3538C26.2657 48.1857 26.3601 47.9577 26.3601 47.72V44.1346C26.3601 43.8969 26.2657 43.6689 26.0976 43.5008C25.9295 43.3327 25.7015 43.2383 25.4638 43.2383ZM24.5675 46.8236H8.43331V45.031H24.5675V46.8236Z" fill="#FFEC6B"/>
<path d="M18.2932 36.9646C18.531 36.9646 18.7589 36.8701 18.927 36.702C19.0951 36.5339 19.1896 36.3059 19.1896 36.0682C19.1896 35.8305 19.0951 35.6025 18.927 35.4344C18.7589 35.2663 18.531 35.1719 18.2932 35.1719H14.7079C14.4701 35.1719 14.2422 35.2663 14.0741 35.4344C13.906 35.6025 13.8115 35.8305 13.8115 36.0682C13.8115 36.3059 13.906 36.5339 14.0741 36.702C14.2422 36.8701 14.4701 36.9646 14.7079 36.9646H18.2932Z" fill="#ECEEF1"/>
<path d="M8.43311 38.7577C8.43311 38.9954 8.52754 39.2234 8.69564 39.3915C8.86373 39.5596 9.09172 39.654 9.32945 39.654H23.6709C23.9086 39.654 24.1366 39.5596 24.3047 39.3915C24.4728 39.2234 24.5673 38.9954 24.5673 38.7577C24.5673 38.5199 24.4728 38.292 24.3047 38.1239C24.1366 37.9558 23.9086 37.8613 23.6709 37.8613H9.32945C9.09172 37.8613 8.86373 37.9558 8.69564 38.1239C8.52754 38.292 8.43311 38.5199 8.43311 38.7577Z" fill="#ECEEF1"/>
<path d="M10.2259 40.5508C9.98821 40.5508 9.76022 40.6452 9.59212 40.8133C9.42402 40.9814 9.32959 41.2094 9.32959 41.4471C9.32959 41.6848 9.42402 41.9128 9.59212 42.0809C9.76022 42.249 9.98821 42.3435 10.2259 42.3435H22.7747C23.0124 42.3435 23.2404 42.249 23.4085 42.0809C23.5766 41.9128 23.6711 41.6848 23.6711 41.4471C23.6711 41.2094 23.5766 40.9814 23.4085 40.8133C23.2404 40.6452 23.0124 40.5508 22.7747 40.5508H10.2259Z" fill="#ECEEF1"/>
</svg>
