<svg width="59" height="59" viewBox="0 0 59 59" fill="none" xmlns="http://www.w3.org/2000/svg">
<path d="M27.7072 17.0852V13.4999C27.7072 13.2621 27.6128 13.0341 27.4447 12.866C27.2766 12.698 27.0486 12.6035 26.8109 12.6035C26.5732 12.6035 26.3452 12.698 26.1771 12.866C26.009 13.0341 25.9146 13.2621 25.9146 13.4999V17.0852C25.9146 17.3229 26.009 17.5509 26.1771 17.719C26.3452 17.8871 26.5732 17.9816 26.8109 17.9816C27.0486 17.9816 27.2766 17.8871 27.4447 17.719C27.6128 17.5509 27.7072 17.3229 27.7072 17.0852Z" fill="#FFEC6B"/>
<path d="M32.1888 17.9816C32.4265 17.9816 32.6545 17.8871 32.8226 17.719C32.9907 17.5509 33.0852 17.3229 33.0852 17.0852V13.4999C33.0852 13.2621 32.9907 13.0341 32.8226 12.866C32.6545 12.698 32.4265 12.6035 32.1888 12.6035C31.9511 12.6035 31.7231 12.698 31.555 12.866C31.3869 13.0341 31.2925 13.2621 31.2925 13.4999V17.0852C31.2925 17.3229 31.3869 17.5509 31.555 17.719C31.7231 17.8871 31.9511 17.9816 32.1888 17.9816Z" fill="#FFEC6B"/>
<path d="M48.7868 31.4434C48.7779 31.4378 48.7689 31.4333 48.7599 31.4288L48.761 31.4277L36.7008 24.6793C38.8861 23.1481 40.5265 20.9601 41.3836 18.4331C42.2407 15.9061 42.27 13.1717 41.4672 10.6269C40.6644 8.0821 39.0712 5.85949 36.9192 4.2818C34.7671 2.70412 32.1682 1.85352 29.4998 1.85352C26.8314 1.85352 24.2324 2.70412 22.0804 4.2818C19.9283 5.85949 18.3352 8.0821 17.5324 10.6269C16.7296 13.1717 16.7589 15.9061 17.616 18.4331C18.4731 20.9601 20.1135 23.1481 22.2988 24.6793L10.2385 31.4277L10.2396 31.4288C10.2307 31.4333 10.2217 31.4378 10.2128 31.4434C10.0806 31.5229 9.97137 31.6353 9.89558 31.7696C9.81979 31.9039 9.78006 32.0555 9.78027 32.2097V46.6632C9.78015 46.8269 9.82489 46.9875 9.90964 47.1276C9.99438 47.2676 10.1159 47.3818 10.2609 47.4576L29.0841 57.3174C29.2124 57.3843 29.355 57.4193 29.4998 57.4193C29.6445 57.4193 29.7871 57.3843 29.9155 57.3174L48.7386 47.4576C48.8837 47.3818 49.0052 47.2676 49.0899 47.1276C49.1747 46.9875 49.2194 46.8269 49.2193 46.6632V32.2097C49.2195 32.0555 49.1798 31.9039 49.104 31.7696C49.0282 31.6353 48.9189 31.5229 48.7868 31.4434ZM18.7437 14.3949C18.7443 12.4108 19.2937 10.4654 20.3311 8.77412C21.3685 7.08278 22.8536 5.71137 24.622 4.81157C26.3904 3.91178 28.3732 3.51866 30.3512 3.67572C32.3291 3.83277 34.2251 4.53387 35.8293 5.70147C37.4336 6.86907 38.6836 8.45765 39.4411 10.2915C40.1986 12.1254 40.4341 14.133 40.1216 16.0924C39.809 18.0518 38.9606 19.8866 37.6701 21.3937C36.3796 22.9009 34.6974 24.0217 32.8095 24.6323C32.6292 24.6905 32.4719 24.8043 32.3604 24.9576C32.2488 25.1108 32.1888 25.2954 32.1888 25.4849V26.9437H30.3961V16.1876C30.3961 15.9499 30.3017 15.7219 30.1336 15.5538C29.9655 15.3857 29.7375 15.2913 29.4998 15.2913C29.2621 15.2913 29.0341 15.3857 28.866 15.5538C28.6979 15.7219 28.6034 15.9499 28.6034 16.1876V26.9437H26.8108V25.4849C26.8108 25.2954 26.7507 25.1108 26.6392 24.9576C26.5277 24.8043 26.3704 24.6905 26.19 24.6323C24.0234 23.9364 22.1342 22.5696 20.7956 20.7292C19.457 18.8889 18.7384 16.6706 18.7437 14.3949ZM25.0181 29.6327V28.7364H33.9815V29.6327H25.0181ZM33.0852 31.4254V32.7699C33.0849 33.1264 32.9431 33.4682 32.691 33.7203C32.4389 33.9724 32.0971 34.1142 31.7406 34.1145H27.2589C26.9024 34.1142 26.5606 33.9724 26.3085 33.7203C26.0565 33.4682 25.9147 33.1264 25.9144 32.7699V31.4254H33.0852ZM28.6034 55.0418L11.573 46.1209V33.6909L28.6034 42.6118V55.0418ZM29.4998 41.0577L12.5589 32.184L24.0993 25.7269C24.3981 25.8692 24.7044 26 25.0181 26.1191V26.9437H24.1217C23.884 26.9437 23.656 27.0382 23.4879 27.2063C23.3198 27.3743 23.2254 27.6023 23.2254 27.8401V30.5291C23.2254 30.7668 23.3198 30.9948 23.4879 31.1629C23.656 31.331 23.884 31.4254 24.1217 31.4254V32.7699C24.1227 33.6017 24.4535 34.3991 25.0416 34.9873C25.6298 35.5754 26.4272 35.9062 27.2589 35.9071H31.7406C32.5724 35.9062 33.3698 35.5754 33.958 34.9873C34.5461 34.3991 34.8769 33.6017 34.8778 32.7699V31.4254C35.1156 31.4254 35.3435 31.331 35.5116 31.1629C35.6797 30.9948 35.7742 30.7668 35.7742 30.5291V27.8401C35.7742 27.6023 35.6797 27.3743 35.5116 27.2063C35.3435 27.0382 35.1156 26.9437 34.8778 26.9437H33.9815V26.1191C34.2952 26.0003 34.6015 25.8696 34.9002 25.7269L46.4406 32.184L29.4998 41.0577ZM47.4266 46.1209L30.3961 55.0418V42.6118L47.4266 33.6909V46.1209Z" fill="#ECEEF1"/>
<path fill-rule="evenodd" clip-rule="evenodd" d="M32.2936 27.0254H30.4311H28.5685H26.706H24.8435H23.9122C23.6652 27.0254 23.4284 27.1215 23.2537 27.2927C23.0791 27.4638 22.981 27.696 22.981 27.938V30.6759C22.981 30.918 23.0791 31.1501 23.2537 31.3213C23.4284 31.4924 23.6652 31.5886 23.9122 31.5886H25.7747H33.2249H35.0874C35.3344 31.5886 35.5712 31.4924 35.7459 31.3213C35.9205 31.1501 36.0187 30.918 36.0187 30.6759V27.938C36.0187 27.696 35.9205 27.4638 35.7459 27.2927C35.5712 27.1215 35.3344 27.0254 35.0874 27.0254H34.1561H32.2936ZM25.2626 28.981V29.6329H33.7371V28.981H25.2626Z" fill="#FFEC6B"/>
</svg>
