<svg width="57" height="50" viewBox="0 0 57 50" fill="none" xmlns="http://www.w3.org/2000/svg">
<path d="M50.9085 0.96875H6.09143C4.66554 0.970263 3.2985 1.53736 2.29024 2.54561C1.28199 3.55387 0.714891 4.92092 0.713379 6.3468V36.8224C0.714891 38.2483 1.28199 39.6153 2.29024 40.6236C3.2985 41.6318 4.66554 42.1989 6.09143 42.2005H20.0049L18.9293 44.8895H15.9512C15.7135 44.8895 15.4855 44.9839 15.3174 45.152C15.1493 45.3201 15.0548 45.5481 15.0548 45.7858V48.4749C15.0548 48.7126 15.1493 48.9406 15.3174 49.1087C15.4855 49.2768 15.7135 49.3712 15.9512 49.3712H41.0487C41.2865 49.3712 41.5145 49.2768 41.6826 49.1087C41.8507 48.9406 41.9451 48.7126 41.9451 48.4749V45.7858C41.9451 45.5481 41.8507 45.3201 41.6826 45.152C41.5145 44.9839 41.2865 44.8895 41.0487 44.8895H38.0707L36.995 42.2005H50.9085C52.3344 42.1989 53.7014 41.6318 54.7097 40.6236C55.7179 39.6153 56.285 38.2483 56.2866 36.8224V6.3468C56.285 4.92092 55.7179 3.55387 54.7097 2.54561C53.7014 1.53736 52.3344 0.970263 50.9085 0.96875ZM40.1524 46.6822V47.5785H16.8475V46.6822H40.1524ZM20.8609 44.8895L21.9365 42.2005H35.0634L36.139 44.8895H20.8609ZM50.9085 40.4078H6.09143C5.29673 40.4068 4.52479 40.1423 3.89648 39.6557C3.26818 39.1692 2.81898 38.4879 2.61923 37.7188H54.3807C54.181 38.4879 53.7318 39.1692 53.1034 39.6557C52.4751 40.1423 51.7032 40.4068 50.9085 40.4078ZM54.4939 35.9261H2.50606V6.3468C2.50695 5.39617 2.88498 4.48474 3.55717 3.81255C4.22937 3.14035 5.1408 2.76232 6.09143 2.76143H50.9085C51.8591 2.7625 52.7704 3.14059 53.4426 3.81274C54.1147 4.4849 54.4928 5.39623 54.4939 6.3468V35.9261Z" fill="#ECEEF1"/>
<path d="M37.4554 15.6158C37.4587 15.515 37.4632 15.413 37.4632 15.3111C37.4632 12.9338 36.5189 10.6539 34.8379 8.97298C33.1569 7.29201 30.8771 6.34766 28.4998 6.34766C26.1226 6.34766 23.8427 7.29201 22.1618 8.97298C20.4808 10.6539 19.5365 12.9338 19.5365 15.3111C19.5365 15.413 19.5409 15.515 19.5443 15.6158C18.5205 16.2014 17.6224 16.9834 16.9015 17.9168C16.1806 18.8503 15.6512 19.9169 15.3435 21.0555C15.0358 22.1941 14.9559 23.3822 15.1085 24.5518C15.261 25.7213 15.643 26.8492 16.2324 27.8707C16.8219 28.8923 17.6073 29.7874 18.5435 30.5047C19.4797 31.2221 20.5483 31.7475 21.6881 32.0509C22.8278 32.3542 24.0162 32.4296 25.1852 32.2726C26.3541 32.1156 27.4805 31.7293 28.4998 31.136C30.5579 32.3236 33.0035 32.6449 35.2985 32.0294C37.5936 31.4138 39.5501 29.9118 40.7377 27.8537C41.9252 25.7956 42.2466 23.35 41.6311 21.055C41.0155 18.7599 39.5135 16.8034 37.4554 15.6158ZM28.4998 8.14034C30.316 8.14254 32.0638 8.83315 33.3909 10.073C34.7181 11.3128 35.5259 13.0096 35.6515 14.8214C34.4691 14.4522 33.2229 14.3325 31.9918 14.47C30.7607 14.6075 29.5716 14.9992 28.4998 15.6203C27.4281 14.9992 26.239 14.6075 25.0079 14.47C23.7768 14.3325 22.5306 14.4522 21.3482 14.8214C21.4738 13.0096 22.2816 11.3128 23.6087 10.073C24.9359 8.83315 26.6837 8.14254 28.4998 8.14034ZM28.4998 17.7861C29.8246 18.8471 30.7305 20.3433 31.0566 22.009C29.4104 22.6394 27.5893 22.6394 25.943 22.009C26.2692 20.3433 27.1751 18.8471 28.4998 17.7861ZM24.3061 21.1227C22.8291 20.0559 21.8123 18.4681 21.4613 16.6802C23.2178 16.0075 25.1686 16.0542 26.8909 16.8102C25.6356 17.9718 24.7388 19.4681 24.3061 21.1227ZM30.1088 16.8102C31.831 16.0542 33.7819 16.0075 35.5383 16.6802C35.1873 18.4681 34.1706 20.0559 32.6936 21.1227C32.2609 19.4681 31.364 17.9718 30.1088 16.8102ZM24.0181 30.5489C22.5019 30.5496 21.0244 30.0694 19.7983 29.1774C18.5722 28.2854 17.6605 27.0275 17.1944 25.5846C16.7283 24.1418 16.7318 22.5883 17.2044 21.1475C17.6769 19.7067 18.5943 18.453 19.8244 17.5665C20.1263 18.7164 20.6531 19.7951 21.3742 20.7403C22.0954 21.6855 22.9967 22.4785 24.026 23.0734C24.0226 23.1742 24.0181 23.2762 24.0181 23.3781C24.0177 24.6119 24.2726 25.8324 24.7671 26.9628C25.2615 28.0932 25.9846 29.1089 26.8909 29.9461C25.9855 30.3441 25.0072 30.5494 24.0181 30.5489ZM28.4998 28.9702C27.7259 28.3508 27.089 27.5774 26.6294 26.6991C26.1699 25.8209 25.8976 24.8567 25.8299 23.8678C27.5685 24.4101 29.4311 24.4101 31.1698 23.8678C31.1021 24.8567 30.8298 25.8209 30.3702 26.6991C29.9106 27.5774 29.2737 28.3508 28.4998 28.9702ZM32.9815 30.5489C31.9925 30.5494 31.0142 30.3441 30.1088 29.9461C31.0151 29.1089 31.7382 28.0932 32.2326 26.9628C32.727 25.8324 32.982 24.6119 32.9815 23.3781C32.9815 23.2762 32.9771 23.1742 32.9737 23.0734C34.003 22.4785 34.9043 21.6855 35.6255 20.7403C36.3466 19.7951 36.8734 18.7164 37.1753 17.5665C38.4054 18.453 39.3227 19.7067 39.7953 21.1475C40.2679 22.5883 40.2714 24.1418 39.8053 25.5846C39.3392 27.0275 38.4275 28.2854 37.2014 29.1774C35.9752 30.0694 34.4978 30.5496 32.9815 30.5489Z" fill="#ECEEF1"/>
<path d="M5.19517 10.8292H8.78054C9.01826 10.8292 9.24625 10.7348 9.41434 10.5667C9.58244 10.3986 9.67688 10.1706 9.67688 9.93288V6.34751C9.67688 6.10979 9.58244 5.8818 9.41434 5.7137C9.24625 5.54561 9.01826 5.45117 8.78054 5.45117H5.19517C4.95745 5.45117 4.72946 5.54561 4.56136 5.7137C4.39326 5.8818 4.29883 6.10979 4.29883 6.34751V9.93288C4.29883 10.1706 4.39326 10.3986 4.56136 10.5667C4.72946 10.7348 4.95745 10.8292 5.19517 10.8292ZM6.09151 7.24385H7.88419V9.03654H6.09151V7.24385Z" fill="#FFEC6B"/>
<path d="M11.4696 9.03487H14.6838L17.1101 11.4614C17.1934 11.5446 17.2922 11.6106 17.4009 11.6557C17.5097 11.7007 17.6263 11.7239 17.744 11.7239C17.8617 11.7239 17.9782 11.7007 18.087 11.6557C18.1958 11.6106 18.2946 11.5446 18.3778 11.4614C18.461 11.3781 18.5271 11.2793 18.5721 11.1706C18.6172 11.0618 18.6403 10.9453 18.6403 10.8276C18.6403 10.7098 18.6172 10.5933 18.5721 10.4845C18.5271 10.3758 18.461 10.277 18.3778 10.1937L15.6888 7.5047C15.6055 7.42147 15.5067 7.35545 15.398 7.31041C15.2892 7.26536 15.1727 7.24218 15.0549 7.24219H11.4696C11.2319 7.24219 11.0039 7.33662 10.8358 7.50472C10.6677 7.67282 10.5732 7.9008 10.5732 8.13853C10.5732 8.37625 10.6677 8.60424 10.8358 8.77234C11.0039 8.94043 11.2319 9.03487 11.4696 9.03487Z" fill="#FFEC6B"/>
<path d="M48.2196 13.5167H51.8049C52.0427 13.5167 52.2707 13.4223 52.4388 13.2542C52.6069 13.0861 52.7013 12.8581 52.7013 12.6204V9.03501C52.7013 8.79729 52.6069 8.5693 52.4388 8.4012C52.2707 8.23311 52.0427 8.13867 51.8049 8.13867H48.2196C47.9819 8.13867 47.7539 8.23311 47.5858 8.4012C47.4177 8.5693 47.3232 8.79729 47.3232 9.03501V12.6204C47.3232 12.8581 47.4177 13.0861 47.5858 13.2542C47.7539 13.4223 47.9819 13.5167 48.2196 13.5167ZM49.1159 9.93135H50.9086V11.724H49.1159V9.93135Z" fill="#FFEC6B"/>
<path d="M39.2562 14.4133C39.374 14.4135 39.4906 14.3904 39.5994 14.3454C39.7081 14.3003 39.8069 14.2342 39.8901 14.1508L42.3165 11.7243H45.5306C45.7684 11.7243 45.9963 11.6299 46.1644 11.4618C46.3325 11.2937 46.427 11.0657 46.427 10.828C46.427 10.5903 46.3325 10.3623 46.1644 10.1942C45.9963 10.0261 45.7684 9.93164 45.5306 9.93164H41.9453C41.8276 9.93164 41.711 9.95482 41.6022 9.99986C41.4935 10.0449 41.3947 10.1109 41.3114 10.1942L38.6224 12.8832C38.497 13.0085 38.4117 13.1683 38.3771 13.3421C38.3425 13.516 38.3603 13.6962 38.4281 13.86C38.4959 14.0238 38.6108 14.1638 38.7582 14.2623C38.9056 14.3608 39.079 14.4134 39.2562 14.4133Z" fill="#FFEC6B"/>
</svg>
