<svg width="885" height="409" viewBox="0 0 885 409" fill="none" xmlns="http://www.w3.org/2000/svg">
<rect x="476.377" y="0.878906" width="408.123" height="408.123" rx="70.1461" fill="#151515"/>
<path d="M826.942 209.765C826.942 291.186 760.937 357.19 679.516 357.19C598.096 357.19 532.091 291.186 532.091 209.765C532.091 128.344 598.096 62.3398 679.516 62.3398C760.937 62.3398 826.942 128.344 826.942 209.765ZM567.4 209.765C567.4 271.685 617.596 321.882 679.516 321.882C741.437 321.882 791.633 271.685 791.633 209.765C791.633 147.845 741.437 97.6482 679.516 97.6482C617.596 97.6482 567.4 147.845 567.4 209.765Z" fill="#202020"/>
<path d="M498.294 64.6383C576.711 63.0796 586.637 61.8878 665.294 52.2925L594.967 76.6641C581.82 71.5118 586.959 65.7995 498.294 64.6383Z" fill="#4FE8E0"/>
<path d="M483.464 101.923C562.067 99.0926 573.122 93.2692 573.268 93.1431L560.758 108.752C557.673 109.351 567.715 103.816 483.464 101.923Z" fill="#49CFEB"/>
<path d="M477.697 273.332C533.945 275.269 541.856 279.253 541.96 279.339L533.008 268.66C530.801 268.25 537.987 272.037 477.697 273.332Z" fill="#3FA3FF"/>
<path d="M495.508 285.953C540.218 287.145 546.506 289.597 546.589 289.65L539.473 283.078C537.719 282.825 543.431 285.156 495.508 285.953Z" fill="#3FA3FF"/>
<path d="M520.539 88.3406C578.229 86.7021 586.343 83.3306 586.45 83.2576L577.268 92.2942C575.004 92.6413 582.375 89.4368 520.539 88.3406Z" fill="#4BD5E8"/>
<path fill-rule="evenodd" clip-rule="evenodd" d="M541.126 287.146C542.725 290.004 546.384 290.885 549.181 289.181L554.921 285.683L576.198 273.399C577.978 272.372 578.588 270.096 577.56 268.316C576.533 266.536 574.257 265.926 572.477 266.954L562.845 272.515C553.07 254.341 547.663 234.109 547.091 213.428H558.025C560.073 213.428 561.733 211.769 561.733 209.721C561.733 207.673 560.073 206.014 558.025 206.014H547.093C547.673 185.536 552.995 165.454 562.66 147.357L571.589 152.512C573.367 153.538 575.639 152.929 576.666 151.152C577.692 149.374 577.083 147.102 575.305 146.075L566.344 140.901C577.166 123.116 592.032 108.124 609.741 97.1516L615.552 107.218C616.579 108.995 618.851 109.604 620.629 108.578C622.406 107.552 623.015 105.279 621.989 103.502L616.166 93.4157C634.388 83.4936 654.689 77.9898 675.429 77.3497V88.6098C675.429 90.6574 677.089 92.3173 679.137 92.3173C681.184 92.3173 682.844 90.6574 682.844 88.6098V77.3285C703.222 77.8404 723.198 83.0483 741.217 92.5325L735.935 101.682C734.908 103.46 735.517 105.733 737.295 106.759C739.072 107.785 741.345 107.176 742.371 105.399L747.695 96.1775C765.731 107.004 780.913 121.959 792.004 139.788L783.124 144.914C781.347 145.94 780.738 148.213 781.764 149.991C782.79 151.768 785.063 152.377 786.84 151.351L795.751 146.206C805.676 164.358 811.201 184.561 811.914 205.19H801.895C799.848 205.19 798.188 206.849 798.188 208.897C798.188 210.945 799.848 212.604 801.895 212.604H811.962C811.514 233.492 806.133 253.946 796.298 272.31L787.394 267.169C785.616 266.143 783.344 266.752 782.318 268.529C781.291 270.307 781.9 272.579 783.678 273.606L803.116 284.828L809.968 288.99C812.767 290.69 816.426 289.804 818.02 286.943C830.725 264.143 837.62 238.53 838.051 212.372C838.514 184.236 831.48 156.483 817.672 131.963C803.864 107.443 783.779 87.0393 759.479 72.8474C735.18 58.6555 707.541 51.1864 679.4 51.2071C651.259 51.2277 623.631 58.7373 599.352 72.9649C575.073 87.1924 555.018 107.625 541.246 132.165C527.474 156.706 520.481 184.469 520.986 212.605C521.455 238.762 528.388 264.365 541.126 287.146Z" fill="url(#paint0_linear_726_7159)"/>
<path d="M695.519 222.208L764.142 166.54L681.621 198.135L681.701 198.274C680.117 198.958 678.524 199.756 676.946 200.668C664.728 207.722 657.968 218.884 661.845 225.601C665.723 232.317 678.771 232.044 690.988 224.99C692.567 224.079 694.054 223.099 695.439 222.069L695.519 222.208Z" fill="#F5F5F5"/>
<path d="M578.008 329.041C572.777 329.041 568.886 327.373 566.336 324.039C564.799 322.044 564.031 319.788 564.031 317.271C564.031 313.871 565.306 311.043 567.856 308.787C570.439 306.531 573.823 305.403 578.008 305.403H604.49L601.989 313.691H578.106C576.111 313.691 574.787 314.426 574.133 315.898C573.937 316.355 573.839 316.813 573.839 317.271C573.839 318.677 574.526 319.707 575.899 320.36C576.553 320.655 577.288 320.802 578.106 320.802H591.543C596.545 320.802 600.338 322.404 602.921 325.608C604.555 327.668 605.373 330.005 605.373 332.621C605.373 336.021 604.098 338.833 601.547 341.056C598.997 343.279 595.662 344.391 591.543 344.391H564.031L566.532 336.103H591.445C593.472 336.103 594.796 335.383 595.417 333.945C595.613 333.52 595.712 333.078 595.712 332.621C595.712 331.215 595.058 330.185 593.75 329.531C593.063 329.204 592.295 329.041 591.445 329.041H578.008ZM614.43 319.429L623.698 316.928V323.793H641.844C643.674 323.793 644.95 322.878 645.669 321.047C645.963 320.295 646.11 319.51 646.11 318.693C646.11 316.699 645.44 315.244 644.1 314.328C643.413 313.903 642.661 313.691 641.844 313.691H614.43L616.931 305.403H641.451C646.454 305.403 650.328 307.168 653.074 310.699C654.97 313.184 655.918 315.996 655.918 319.134C655.918 322.992 654.562 326.131 651.848 328.55C649.2 330.904 645.734 332.081 641.451 332.081H623.698V344.391H614.43V319.429ZM672.773 329.09V336.103H701.217L698.716 344.391H663.504V305.403H701.217L698.716 313.691H672.773V320.802H696.95V329.09H672.773ZM719.592 329.09V336.103H748.036L745.534 344.391H710.323V305.403H748.036L745.534 313.691H719.592V320.802H743.769V329.09H719.592ZM757.092 319.478L766.361 316.977V336.103H780.976C783.787 336.103 785.912 334.55 787.351 331.444C788.299 329.449 788.773 327.194 788.773 324.676C788.773 320.818 787.809 317.859 785.88 315.8C784.539 314.394 782.904 313.691 780.976 313.691H757.092L759.594 305.403H782.103C787.4 305.403 791.601 307.626 794.707 312.072C797.29 315.8 798.581 320.197 798.581 325.265C798.581 330.659 797.143 335.138 794.266 338.702C791.225 342.462 787.171 344.358 782.103 344.391H757.092V319.478Z" fill="#54FFD6"/>
<path d="M615.659 361.762V355.974H644.121L642.375 361.762H632.202V383.203H625.694V361.762H615.659ZM656.03 372.517V377.415H675.895L674.149 383.203H649.556V355.974H675.895L674.149 361.762H656.03V366.728H672.916V372.517H656.03ZM690.886 372.483C687.233 372.483 684.516 371.318 682.735 368.989C681.662 367.596 681.125 366.021 681.125 364.262C681.125 361.888 682.015 359.912 683.796 358.337C685.6 356.761 687.964 355.974 690.886 355.974H709.382L707.635 361.762H690.955C689.562 361.762 688.637 362.276 688.181 363.303C688.044 363.623 687.975 363.943 687.975 364.262C687.975 365.244 688.455 365.963 689.414 366.42C689.87 366.626 690.384 366.728 690.955 366.728H700.34C703.833 366.728 706.482 367.847 708.286 370.085C709.428 371.524 709.999 373.156 709.999 374.983C709.999 377.358 709.108 379.321 707.327 380.874C705.546 382.427 703.217 383.203 700.34 383.203H681.125L682.872 377.415H700.271C701.687 377.415 702.612 376.912 703.046 375.908C703.183 375.611 703.251 375.303 703.251 374.983C703.251 374.001 702.794 373.282 701.881 372.825C701.402 372.597 700.865 372.483 700.271 372.483H690.886ZM714.132 361.762V355.974H742.595L740.848 361.762H730.675V383.203H724.167V361.762H714.132Z" fill="#F5F5F5"/>
<g clip-path="url(#clip0_726_7159)">
<rect x="0.5" y="0.878906" width="408.123" height="408.123" rx="70.1461" fill="#151515"/>
<g opacity="0.1">
<path d="M407.826 1.67578L0.5 409.001" stroke="white" stroke-width="1.99279"/>
<path d="M0.500026 1.67578L407.826 409.001" stroke="white" stroke-width="1.99279"/>
<circle cx="203.764" cy="205.337" r="67.7547" stroke="white" stroke-width="1.99279"/>
<circle cx="203.764" cy="205.34" r="157.032" stroke="white" stroke-width="1.99279"/>
<path d="M34.1741 0.878906V408.603" stroke="white" stroke-width="1.99279"/>
<path d="M409.021 34.0156L1.03843 34.0156" stroke="white" stroke-width="1.99279"/>
<path d="M91.1261 0.878906V408.603" stroke="white" stroke-width="1.99279"/>
<path d="M409.021 88.3789L1.03843 88.3789" stroke="white" stroke-width="1.99279"/>
<path d="M148.078 0.878906V408.603" stroke="white" stroke-width="1.99279"/>
<path d="M409.021 142.742L1.03843 142.742" stroke="white" stroke-width="1.99279"/>
<path d="M205.03 0.878906V408.603" stroke="white" stroke-width="1.99279"/>
<path d="M409.021 197.105L1.03843 197.105" stroke="white" stroke-width="1.99279"/>
<path d="M261.982 0.878906V408.603" stroke="white" stroke-width="1.99279"/>
<path d="M409.021 251.469L1.03843 251.469" stroke="white" stroke-width="1.99279"/>
<path d="M318.934 0.878906V408.603" stroke="white" stroke-width="1.99279"/>
<path d="M409.021 305.832L1.03843 305.832" stroke="white" stroke-width="1.99279"/>
<path d="M375.886 0.878906V408.603" stroke="white" stroke-width="1.99279"/>
<path d="M409.021 360.195L1.03843 360.195" stroke="white" stroke-width="1.99279"/>
</g>
<path d="M99.1505 68.7501C89.5983 66.899 73.5175 65.3988 42.8573 64.6125C102.236 63.2181 117.643 61.4605 185.627 53.1697L119.099 76.2249C117.133 75.4459 115.564 74.644 113.996 73.8425C110.504 72.0573 107.015 70.2742 99.1505 68.7501Z" stroke="white" stroke-width="0.823885"/>
<path d="M76.7457 105.867C69.1884 104.478 53.5045 102.843 20.075 101.837C51.7687 100.443 70.743 98.552 81.9692 96.9266C88.2832 96.0124 92.1516 95.1814 94.4566 94.5682C95.1322 94.3884 95.6744 94.2272 96.1051 94.0877L84.6567 108.372C84.4364 108.403 84.3773 108.373 84.3214 108.344C84.2644 108.314 84.205 108.272 84.0966 108.196L84.058 108.169C83.9326 108.081 83.7726 107.972 83.555 107.847C82.6863 107.348 80.9659 106.643 76.7457 105.867Z" stroke="white" stroke-width="0.823885"/>
<path d="M51.3272 270.762C46.1832 271.666 35.7938 272.721 14.2637 273.414C34.8552 274.35 47.4462 275.567 55.0613 276.622C59.5821 277.247 62.3544 277.817 64.0088 278.237C64.3072 278.313 64.5696 278.385 64.7996 278.45L56.9147 269.044C56.8184 269.035 56.7953 269.048 56.7822 269.055C56.7808 269.056 56.7795 269.057 56.7783 269.057C56.7441 269.075 56.7079 269.099 56.6265 269.153L56.6019 269.17C56.5109 269.231 56.3932 269.308 56.2333 269.396C55.5958 269.746 54.351 270.231 51.3272 270.762Z" stroke="white" stroke-width="0.823885"/>
<path d="M58.9822 284.53C55.3009 285.031 48.2392 285.607 34.3761 286.028C47.9077 286.574 56.5206 287.237 61.9505 287.819C65.5438 288.204 67.7473 288.554 69.0625 288.813C69.1222 288.825 69.1802 288.836 69.2364 288.848L63.4157 283.472C63.3455 283.467 63.3285 283.475 63.3209 283.479C63.32 283.479 63.3193 283.479 63.3187 283.48C63.2939 283.489 63.2679 283.503 63.2014 283.537L63.1835 283.547C63.1104 283.585 63.0154 283.633 62.8866 283.687C62.3757 283.904 61.3844 284.203 58.9822 284.53Z" stroke="white" stroke-width="0.823885"/>
<path d="M95.4248 90.451C90.3103 89.7092 80.1288 88.8474 59.3522 88.2607C79.3308 87.4791 91.6911 86.4855 99.2575 85.6213C103.892 85.0919 106.733 84.6107 108.426 84.2553C108.686 84.2007 108.92 84.149 109.128 84.1006L101.2 91.9034C101.064 91.9164 101.028 91.9012 101 91.8896L100.998 91.8886C100.96 91.873 100.921 91.8515 100.84 91.8063L100.813 91.7916C100.72 91.7401 100.6 91.6754 100.437 91.6018C99.7908 91.309 98.5221 90.9001 95.4248 90.451Z" stroke="white" stroke-width="0.823885"/>
<mask id="path-36-inside-1_726_7159" fill="white">
<path fill-rule="evenodd" clip-rule="evenodd" d="M65.249 287.146C66.8475 290.004 70.507 290.885 73.304 289.181L79.0472 285.681L100.321 273.399C102.101 272.371 102.711 270.096 101.683 268.316C100.655 266.536 98.3795 265.926 96.5996 266.954L86.9679 272.514C77.1934 254.341 71.7861 234.109 71.2138 213.428H82.1482C84.1958 213.428 85.8557 211.769 85.8557 209.721C85.8557 207.673 84.1958 206.013 82.1482 206.013H71.2161C71.7958 185.536 77.1181 165.454 86.7829 147.357L95.7121 152.512C97.4895 153.538 99.7622 152.929 100.788 151.152C101.815 149.374 101.206 147.102 99.4282 146.075L90.4666 140.901C101.288 123.116 116.155 108.124 133.864 97.1516L139.675 107.218C140.701 108.995 142.974 109.604 144.752 108.578C146.529 107.552 147.138 105.279 146.112 103.501L140.289 93.4157C158.511 83.4936 178.812 77.9898 199.552 77.3497V88.6097C199.552 90.6573 201.212 92.3172 203.259 92.3172C205.307 92.3172 206.967 90.6573 206.967 88.6097V77.3285C227.345 77.8404 247.32 83.0483 265.34 92.5325L260.057 101.682C259.031 103.46 259.64 105.733 261.418 106.759C263.195 107.785 265.468 107.176 266.494 105.399L271.818 96.1775C289.854 107.004 305.036 121.959 316.127 139.788L307.247 144.914C305.47 145.94 304.861 148.213 305.887 149.991C306.913 151.768 309.186 152.377 310.963 151.351L319.874 146.206C329.799 164.358 335.324 184.561 336.037 205.189H326.018C323.971 205.189 322.311 206.849 322.311 208.897C322.311 210.945 323.971 212.604 326.018 212.604H336.085C335.637 233.492 330.256 253.946 320.421 272.31L311.517 267.169C309.739 266.143 307.467 266.752 306.44 268.529C305.414 270.307 306.023 272.579 307.801 273.605L327.238 284.827L334.091 288.99C336.89 290.69 340.549 289.804 342.143 286.943C354.848 264.143 361.743 238.53 362.174 212.372C362.637 184.236 355.603 156.483 341.795 131.963C327.987 107.443 307.902 87.0393 283.602 72.8474C259.303 58.6555 231.663 51.1864 203.523 51.2071C175.382 51.2277 147.754 58.7373 123.475 72.9649C99.1963 87.1924 79.1412 107.625 65.3692 132.165C51.5972 156.706 44.6044 184.469 45.1089 212.605C45.5778 238.762 52.5107 264.365 65.249 287.146Z"/>
</mask>
<path fill-rule="evenodd" clip-rule="evenodd" d="M65.249 287.146C66.8475 290.004 70.507 290.885 73.304 289.181L79.0472 285.681L100.321 273.399C102.101 272.371 102.711 270.096 101.683 268.316C100.655 266.536 98.3795 265.926 96.5996 266.954L86.9679 272.514C77.1934 254.341 71.7861 234.109 71.2138 213.428H82.1482C84.1958 213.428 85.8557 211.769 85.8557 209.721C85.8557 207.673 84.1958 206.013 82.1482 206.013H71.2161C71.7958 185.536 77.1181 165.454 86.7829 147.357L95.7121 152.512C97.4895 153.538 99.7622 152.929 100.788 151.152C101.815 149.374 101.206 147.102 99.4282 146.075L90.4666 140.901C101.288 123.116 116.155 108.124 133.864 97.1516L139.675 107.218C140.701 108.995 142.974 109.604 144.752 108.578C146.529 107.552 147.138 105.279 146.112 103.501L140.289 93.4157C158.511 83.4936 178.812 77.9898 199.552 77.3497V88.6097C199.552 90.6573 201.212 92.3172 203.259 92.3172C205.307 92.3172 206.967 90.6573 206.967 88.6097V77.3285C227.345 77.8404 247.32 83.0483 265.34 92.5325L260.057 101.682C259.031 103.46 259.64 105.733 261.418 106.759C263.195 107.785 265.468 107.176 266.494 105.399L271.818 96.1775C289.854 107.004 305.036 121.959 316.127 139.788L307.247 144.914C305.47 145.94 304.861 148.213 305.887 149.991C306.913 151.768 309.186 152.377 310.963 151.351L319.874 146.206C329.799 164.358 335.324 184.561 336.037 205.189H326.018C323.971 205.189 322.311 206.849 322.311 208.897C322.311 210.945 323.971 212.604 326.018 212.604H336.085C335.637 233.492 330.256 253.946 320.421 272.31L311.517 267.169C309.739 266.143 307.467 266.752 306.44 268.529C305.414 270.307 306.023 272.579 307.801 273.605L327.238 284.827L334.091 288.99C336.89 290.69 340.549 289.804 342.143 286.943C354.848 264.143 361.743 238.53 362.174 212.372C362.637 184.236 355.603 156.483 341.795 131.963C327.987 107.443 307.902 87.0393 283.602 72.8474C259.303 58.6555 231.663 51.1864 203.523 51.2071C175.382 51.2277 147.754 58.7373 123.475 72.9649C99.1963 87.1924 79.1412 107.625 65.3692 132.165C51.5972 156.706 44.6044 184.469 45.1089 212.605C45.5778 238.762 52.5107 264.365 65.249 287.146Z" fill="#151515"/>
<path d="M73.304 289.181L72.6357 288.084L73.304 289.181ZM65.249 287.146L64.1279 287.773L65.249 287.146ZM79.0472 285.681L78.4049 284.569L78.3918 284.577L78.3788 284.585L79.0472 285.681ZM100.321 273.399L99.6787 272.287H99.6787L100.321 273.399ZM96.5996 266.954L97.2418 268.066H97.2418L96.5996 266.954ZM86.9679 272.514L85.8367 273.123L86.4637 274.289L87.6102 273.627L86.9679 272.514ZM71.2138 213.428V212.144H69.8932L69.9298 213.464L71.2138 213.428ZM71.2161 206.013L69.9321 205.977L69.8947 207.298H71.2161V206.013ZM86.7829 147.357L87.4251 146.244L86.2753 145.58L85.6499 146.752L86.7829 147.357ZM95.7121 152.512L95.0698 153.624L95.7121 152.512ZM100.788 151.152L101.901 151.794H101.901L100.788 151.152ZM99.4282 146.075L98.786 147.188L99.4282 146.075ZM90.4666 140.901L89.3693 140.234L88.6861 141.357L89.8244 142.014L90.4666 140.901ZM133.864 97.1516L134.976 96.5093L134.313 95.3618L133.187 96.0597L133.864 97.1516ZM139.675 107.218L140.788 106.575L139.675 107.218ZM144.752 108.578L144.109 107.465V107.465L144.752 108.578ZM146.112 103.501L147.224 102.859L146.112 103.501ZM140.289 93.4157L139.675 92.2876L138.518 92.9174L139.176 94.0579L140.289 93.4157ZM199.552 77.3497H200.836V76.025L199.512 76.0659L199.552 77.3497ZM206.967 77.3285L206.999 76.0444L205.682 76.0113V77.3285H206.967ZM265.34 92.5325L266.452 93.1747L267.12 92.018L265.938 91.3959L265.34 92.5325ZM260.057 101.682L258.945 101.04L260.057 101.682ZM261.418 106.759L262.06 105.646L262.06 105.646L261.418 106.759ZM266.494 105.399L265.382 104.756L266.494 105.399ZM271.818 96.1775L272.479 95.0762L271.359 94.4038L270.705 95.5352L271.818 96.1775ZM316.127 139.788L316.769 140.9L317.919 140.236L317.217 139.109L316.127 139.788ZM307.247 144.914L306.605 143.802L307.247 144.914ZM305.887 149.991L306.999 149.348L306.999 149.348L305.887 149.991ZM310.963 151.351L311.606 152.463L310.963 151.351ZM319.874 146.206L321.001 145.59L320.37 144.437L319.232 145.094L319.874 146.206ZM336.037 205.189V206.474H337.366L337.32 205.145L336.037 205.189ZM336.085 212.604L337.369 212.632L337.397 211.32H336.085V212.604ZM320.421 272.31L319.778 273.422L320.927 274.085L321.553 272.916L320.421 272.31ZM311.517 267.169L312.159 266.057H312.159L311.517 267.169ZM306.44 268.529L305.328 267.887L305.328 267.887L306.44 268.529ZM307.801 273.605L308.443 272.493L307.801 273.605ZM327.238 284.827L327.905 283.73L327.892 283.722L327.88 283.715L327.238 284.827ZM334.091 288.99L333.424 290.087L334.091 288.99ZM342.143 286.943L341.021 286.317L342.143 286.943ZM362.174 212.372L360.889 212.351V212.351L362.174 212.372ZM341.795 131.963L340.676 132.593L341.795 131.963ZM283.602 72.8474L282.955 73.9565L283.602 72.8474ZM203.523 51.2071L203.522 49.9226L203.523 51.2071ZM123.475 72.9649L124.125 74.0731L123.475 72.9649ZM65.3692 132.165L64.2491 131.537L65.3692 132.165ZM45.1089 212.605L43.8246 212.628L45.1089 212.605ZM72.6357 288.084C70.4332 289.426 67.5978 288.714 66.3701 286.519L64.1279 287.773C66.0972 291.295 70.5809 292.344 73.9724 290.278L72.6357 288.084ZM78.3788 284.585L72.6357 288.084L73.9724 290.278L79.7156 286.778L78.3788 284.585ZM79.6894 286.794L100.963 274.511L99.6787 272.287L78.4049 284.569L79.6894 286.794ZM100.963 274.511C103.357 273.129 104.178 270.068 102.795 267.673L100.571 268.958C101.244 270.123 100.844 271.614 99.6787 272.287L100.963 274.511ZM102.795 267.673C101.413 265.279 98.3516 264.459 95.9574 265.841L97.2418 268.066C98.4073 267.393 99.8977 267.792 100.571 268.958L102.795 267.673ZM95.9574 265.841L86.3257 271.402L87.6102 273.627L97.2418 268.066L95.9574 265.841ZM69.9298 213.464C70.5077 234.345 75.9674 254.773 85.8367 273.123L88.0991 271.906C78.4194 253.909 73.0646 233.873 72.4977 213.393L69.9298 213.464ZM82.1482 212.144H71.2138V214.713H82.1482V212.144ZM84.5712 209.721C84.5712 211.059 83.4864 212.144 82.1482 212.144V214.713C84.9052 214.713 87.1402 212.478 87.1402 209.721H84.5712ZM82.1482 207.298C83.4864 207.298 84.5712 208.383 84.5712 209.721H87.1402C87.1402 206.964 84.9052 204.729 82.1482 204.729V207.298ZM71.2161 207.298H82.1482V204.729H71.2161V207.298ZM85.6499 146.752C75.8914 165.024 70.5174 185.301 69.9321 205.977L72.5 206.05C73.0741 185.771 78.3448 165.883 87.9159 147.962L85.6499 146.752ZM86.1406 148.469L95.0698 153.624L96.3543 151.4L87.4251 146.244L86.1406 148.469ZM95.0698 153.624C97.4616 155.005 100.52 154.186 101.901 151.794L99.676 150.51C99.0045 151.673 97.5173 152.071 96.3543 151.4L95.0698 153.624ZM101.901 151.794C103.282 149.402 102.462 146.344 100.07 144.963L98.786 147.188C99.949 147.859 100.348 149.346 99.676 150.51L101.901 151.794ZM100.07 144.963L91.1088 139.789L89.8244 142.014L98.786 147.188L100.07 144.963ZM133.187 96.0597C115.307 107.139 100.296 122.276 89.3693 140.234L91.5639 141.569C102.281 123.956 117.003 109.109 134.54 98.2434L133.187 96.0597ZM140.788 106.575L134.976 96.5093L132.751 97.7938L138.563 107.86L140.788 106.575ZM144.109 107.465C142.946 108.137 141.459 107.738 140.788 106.575L138.563 107.86C139.944 110.252 143.002 111.071 145.394 109.69L144.109 107.465ZM144.999 104.144C145.671 105.307 145.272 106.794 144.109 107.465L145.394 109.69C147.786 108.309 148.605 105.251 147.224 102.859L144.999 104.144ZM139.176 94.0579L144.999 104.144L147.224 102.859L141.401 92.7735L139.176 94.0579ZM199.512 76.0659C178.571 76.7122 158.074 82.2693 139.675 92.2876L140.903 94.5438C158.949 84.7179 179.052 79.2675 199.592 78.6336L199.512 76.0659ZM198.267 77.3497V88.6097H200.836V77.3497H198.267ZM198.267 88.6097C198.267 91.3667 200.502 93.6017 203.259 93.6017V91.0327C201.921 91.0327 200.836 89.9479 200.836 88.6097H198.267ZM203.259 93.6017C206.016 93.6017 208.251 91.3667 208.251 88.6097H205.682C205.682 89.9479 204.598 91.0327 203.259 91.0327V93.6017ZM208.251 88.6097V77.3285H205.682V88.6097H208.251ZM265.938 91.3959C247.744 81.8197 227.575 76.5613 206.999 76.0444L206.935 78.6125C227.115 79.1195 246.897 84.2769 264.742 93.6691L265.938 91.3959ZM261.17 102.325L266.452 93.1747L264.228 91.8903L258.945 101.04L261.17 102.325ZM262.06 105.646C260.897 104.975 260.498 103.488 261.17 102.325L258.945 101.04C257.564 103.432 258.384 106.49 260.775 107.871L262.06 105.646ZM265.382 104.756C264.71 105.919 263.223 106.318 262.06 105.646L260.775 107.871C263.167 109.252 266.225 108.433 267.606 106.041L265.382 104.756ZM270.705 95.5352L265.382 104.756L267.606 106.041L272.93 96.8197L270.705 95.5352ZM317.217 139.109C306.019 121.108 290.69 106.007 272.479 95.0762L271.157 97.2788C289.018 108 304.053 122.811 315.036 140.466L317.217 139.109ZM315.484 138.675L306.605 143.802L307.889 146.027L316.769 140.9L315.484 138.675ZM306.605 143.802C304.213 145.183 303.394 148.241 304.775 150.633L306.999 149.348C306.328 148.185 306.726 146.698 307.889 146.027L306.605 143.802ZM304.775 150.633C306.156 153.025 309.214 153.844 311.606 152.463L310.321 150.238C309.158 150.91 307.671 150.511 306.999 149.348L304.775 150.633ZM311.606 152.463L320.516 147.319L319.232 145.094L310.321 150.238L311.606 152.463ZM337.32 205.145C336.601 184.316 331.022 163.918 321.001 145.59L318.747 146.823C328.576 164.798 334.047 184.805 334.753 205.234L337.32 205.145ZM326.018 206.474H336.037V203.905H326.018V206.474ZM323.595 208.897C323.595 207.559 324.68 206.474 326.018 206.474V203.905C323.261 203.905 321.026 206.14 321.026 208.897H323.595ZM326.018 211.32C324.68 211.32 323.595 210.235 323.595 208.897H321.026C321.026 211.654 323.261 213.889 326.018 213.889V211.32ZM336.085 211.32H326.018V213.889H336.085V211.32ZM321.553 272.916C331.484 254.375 336.917 233.722 337.369 212.632L334.801 212.577C334.357 233.262 329.028 253.518 319.288 271.703L321.553 272.916ZM310.875 268.281L319.778 273.422L321.063 271.197L312.159 266.057L310.875 268.281ZM307.553 269.171C308.224 268.008 309.711 267.61 310.875 268.281L312.159 266.057C309.767 264.676 306.709 265.495 305.328 267.887L307.553 269.171ZM308.443 272.493C307.28 271.822 306.881 270.334 307.553 269.171L305.328 267.887C303.947 270.279 304.767 273.337 307.158 274.718L308.443 272.493ZM327.88 283.715L308.443 272.493L307.158 274.718L326.596 285.94L327.88 283.715ZM334.758 287.892L327.905 283.73L326.571 285.925L333.424 290.087L334.758 287.892ZM341.021 286.317C339.796 288.515 336.962 289.231 334.758 287.892L333.424 290.087C336.819 292.149 341.301 291.093 343.265 287.568L341.021 286.317ZM360.889 212.351C360.462 238.297 353.623 263.703 341.021 286.317L343.265 287.568C356.073 264.584 363.024 238.763 363.458 212.394L360.889 212.351ZM340.676 132.593C354.372 156.914 361.349 184.443 360.889 212.351L363.458 212.394C363.925 184.029 356.834 156.051 342.914 131.332L340.676 132.593ZM282.955 73.9565C307.058 88.0335 326.98 108.272 340.676 132.593L342.914 131.332C328.995 106.614 308.747 86.0451 284.25 71.7382L282.955 73.9565ZM203.524 52.4915C231.436 52.4711 258.852 59.8796 282.955 73.9565L284.25 71.7382C259.753 57.4313 231.89 49.9018 203.522 49.9226L203.524 52.4915ZM124.125 74.0731C148.207 59.9608 175.611 52.512 203.524 52.4915L203.522 49.9226C175.153 49.9434 147.302 57.5139 122.826 71.8567L124.125 74.0731ZM66.4893 132.794C80.1498 108.453 100.042 88.1854 124.125 74.0731L122.826 71.8567C98.3502 86.1995 78.1327 106.798 64.2491 131.537L66.4893 132.794ZM46.3931 212.582C45.8928 184.674 52.8289 157.136 66.4893 132.794L64.2491 131.537C50.3655 156.276 43.3161 184.264 43.8246 212.628L46.3931 212.582ZM66.3701 286.519C53.735 263.923 46.8583 238.527 46.3931 212.582L43.8246 212.628C44.2974 238.997 51.2864 264.807 64.1279 287.773L66.3701 286.519Z" fill="white" mask="url(#path-36-inside-1_726_7159)"/>
<path d="M285.99 167.853L219.758 221.582L219.688 221.46L219.315 221.737C217.943 222.758 216.469 223.729 214.904 224.632C208.844 228.131 202.595 229.937 197.403 230.046C192.195 230.155 188.154 228.562 186.326 225.394C184.497 222.227 185.137 217.931 187.836 213.475C190.526 209.033 195.215 204.524 201.275 201.025C202.84 200.122 204.418 199.331 205.988 198.653L206.414 198.469L206.343 198.347L285.99 167.853Z" stroke="white" stroke-width="0.826025"/>
<path d="M90.4585 324.039L91.0917 323.554L91.0899 323.552L90.4585 324.039ZM91.9788 308.787L91.4544 308.186L91.4506 308.19L91.9788 308.787ZM128.613 305.403L129.376 305.633L129.686 304.606H128.613V305.403ZM126.111 313.691V314.488H126.704L126.875 313.921L126.111 313.691ZM98.2561 315.898L97.5276 315.574L97.5234 315.584L98.2561 315.898ZM100.022 320.36L99.6788 321.08L99.6866 321.084L99.6944 321.087L100.022 320.36ZM127.043 325.608L127.668 325.112L127.664 325.108L127.043 325.608ZM88.1536 344.391L87.3905 344.16L87.0804 345.188H88.1536V344.391ZM90.6547 336.103V335.306H90.0626L89.8916 335.872L90.6547 336.103ZM119.54 333.945L118.816 333.611L118.812 333.62L118.808 333.629L119.54 333.945ZM117.873 329.531L118.229 328.818L118.222 328.815L118.215 328.811L117.873 329.531ZM102.13 328.244C97.0799 328.244 93.4542 326.644 91.0917 323.554L89.8253 324.523C92.5631 328.103 96.7186 329.838 102.13 329.838V328.244ZM91.0899 323.552C89.6607 321.697 88.9507 319.612 88.9507 317.271H87.3565C87.3565 319.964 88.183 322.391 89.8271 324.525L91.0899 323.552ZM88.9507 317.271C88.9507 314.099 90.1276 311.489 92.5069 309.384L91.4506 308.19C88.7297 310.597 87.3565 313.642 87.3565 317.271H88.9507ZM92.5032 309.387C94.9105 307.284 98.094 306.2 102.13 306.2V304.606C97.797 304.606 94.2127 305.777 91.4544 308.186L92.5032 309.387ZM102.13 306.2H128.613V304.606H102.13V306.2ZM127.849 305.173L125.348 313.461L126.875 313.921L129.376 305.633L127.849 305.173ZM126.111 312.894H102.228V314.488H126.111V312.894ZM102.228 312.894C101.137 312.894 100.165 313.095 99.3525 313.546C98.5293 314.003 97.9202 314.691 97.5277 315.574L98.9845 316.221C99.2459 315.633 99.6257 315.218 100.127 314.939C100.639 314.655 101.325 314.488 102.228 314.488V312.894ZM97.5234 315.584C97.2885 316.132 97.1647 316.696 97.1647 317.271H98.7589C98.7589 316.93 98.8313 316.579 98.9887 316.212L97.5234 315.584ZM97.1647 317.271C97.1647 318.109 97.3715 318.877 97.8135 319.54C98.2531 320.199 98.892 320.705 99.6788 321.08L100.364 319.641C99.778 319.362 99.387 319.026 99.14 318.655C98.8955 318.289 98.7589 317.838 98.7589 317.271H97.1647ZM99.6944 321.087C100.465 321.434 101.314 321.599 102.228 321.599V320.005C101.508 320.005 100.886 319.875 100.349 319.634L99.6944 321.087ZM102.228 321.599H115.666V320.005H102.228V321.599ZM115.666 321.599C120.484 321.599 124.024 323.132 126.423 326.108L127.664 325.108C124.897 321.675 120.852 320.005 115.666 320.005V321.599ZM126.419 326.103C127.942 328.023 128.698 330.186 128.698 332.621H130.292C130.292 329.824 129.414 327.312 127.668 325.112L126.419 326.103ZM128.698 332.621C128.698 335.792 127.522 338.384 125.146 340.455L126.194 341.657C128.919 339.281 130.292 336.25 130.292 332.621H128.698ZM125.146 340.455C122.771 342.526 119.636 343.594 115.666 343.594V345.188C119.934 345.188 123.469 344.032 126.194 341.657L125.146 340.455ZM115.666 343.594H88.1536V345.188H115.666V343.594ZM88.9167 344.621L91.4178 336.333L89.8916 335.872L87.3905 344.16L88.9167 344.621ZM90.6547 336.9H115.568V335.306H90.6547V336.9ZM115.568 336.9C116.67 336.9 117.649 336.705 118.461 336.264C119.287 335.815 119.893 335.137 120.272 334.261L118.808 333.629C118.565 334.191 118.199 334.592 117.7 334.863C117.189 335.141 116.492 335.306 115.568 335.306V336.9ZM120.264 334.279C120.507 333.752 120.631 333.196 120.631 332.621H119.037C119.037 332.96 118.965 333.288 118.816 333.611L120.264 334.279ZM120.631 332.621C120.631 331.79 120.437 331.028 120.017 330.367C119.598 329.707 118.987 329.197 118.229 328.818L117.516 330.244C118.066 330.519 118.436 330.851 118.671 331.221C118.905 331.59 119.037 332.046 119.037 332.621H120.631ZM118.215 328.811C117.41 328.428 116.522 328.244 115.568 328.244V329.838C116.313 329.838 116.962 329.981 117.53 330.251L118.215 328.811ZM115.568 328.244H102.13V329.838H115.568V328.244ZM138.552 319.429L138.345 318.659L137.755 318.818V319.429H138.552ZM147.821 316.928H148.618V315.887L147.613 316.158L147.821 316.928ZM147.821 323.793H147.024V324.59H147.821V323.793ZM169.792 321.047L170.533 321.338L170.534 321.337L169.792 321.047ZM168.222 314.328L168.672 313.67L168.657 313.66L168.642 313.651L168.222 314.328ZM138.552 313.691L137.789 313.461L137.479 314.488H138.552V313.691ZM141.053 305.403V304.606H140.461L140.29 305.173L141.053 305.403ZM177.197 310.699L177.83 310.216L177.826 310.21L177.197 310.699ZM175.971 328.55L176.5 329.146L176.501 329.145L175.971 328.55ZM147.821 332.081V331.284H147.024V332.081H147.821ZM147.821 344.391V345.188H148.618V344.391H147.821ZM138.552 344.391H137.755V345.188H138.552V344.391ZM138.76 320.198L148.029 317.697L147.613 316.158L138.345 318.659L138.76 320.198ZM147.024 316.928V323.793H148.618V316.928H147.024ZM147.821 324.59H165.966V322.996H147.821V324.59ZM165.966 324.59C167.02 324.59 167.966 324.325 168.761 323.754C169.551 323.187 170.132 322.361 170.533 321.338L169.05 320.756C168.732 321.564 168.316 322.111 167.831 322.459C167.35 322.804 166.744 322.996 165.966 322.996V324.59ZM170.534 321.337C170.865 320.492 171.03 319.609 171.03 318.693H169.436C169.436 319.412 169.307 320.098 169.049 320.757L170.534 321.337ZM171.03 318.693C171.03 316.504 170.281 314.769 168.672 313.67L167.773 314.987C168.845 315.719 169.436 316.894 169.436 318.693H171.03ZM168.642 313.651C167.828 313.147 166.93 312.894 165.966 312.894V314.488C166.637 314.488 167.244 314.66 167.803 315.006L168.642 313.651ZM165.966 312.894H138.552V314.488H165.966V312.894ZM139.315 313.921L141.816 305.633L140.29 305.173L137.789 313.461L139.315 313.921ZM141.053 306.2H165.574V304.606H141.053V306.2ZM165.574 306.2C170.363 306.2 173.992 307.877 176.568 311.189L177.826 310.21C174.909 306.46 170.789 304.606 165.574 304.606V306.2ZM176.563 311.183C178.353 313.528 179.244 316.17 179.244 319.134H180.838C180.838 315.822 179.833 312.84 177.83 310.216L176.563 311.183ZM179.244 319.134C179.244 322.781 177.973 325.697 175.44 327.955L176.501 329.145C179.396 326.565 180.838 323.204 180.838 319.134H179.244ZM175.441 327.955C172.968 330.153 169.704 331.284 165.574 331.284V332.878C170.009 332.878 173.677 331.656 176.5 329.146L175.441 327.955ZM165.574 331.284H147.821V332.878H165.574V331.284ZM147.024 332.081V344.391H148.618V332.081H147.024ZM147.821 343.594H138.552V345.188H147.821V343.594ZM139.349 344.391V319.429H137.755V344.391H139.349ZM196.896 329.09V328.293H196.099V329.09H196.896ZM196.896 336.103H196.099V336.9H196.896V336.103ZM225.34 336.103L226.103 336.333L226.413 335.306H225.34V336.103ZM222.838 344.391V345.188H223.431L223.602 344.621L222.838 344.391ZM187.627 344.391H186.83V345.188H187.627V344.391ZM187.627 305.403V304.606H186.83V305.403H187.627ZM225.34 305.403L226.103 305.633L226.413 304.606H225.34V305.403ZM222.838 313.691V314.488H223.431L223.602 313.921L222.838 313.691ZM196.896 313.691V312.894H196.099V313.691H196.896ZM196.896 320.802H196.099V321.599H196.896V320.802ZM221.073 320.802H221.87V320.005H221.073V320.802ZM221.073 329.09V329.887H221.87V329.09H221.073ZM196.099 329.09V336.103H197.693V329.09H196.099ZM196.896 336.9H225.34V335.306H196.896V336.9ZM224.576 335.872L222.075 344.16L223.602 344.621L226.103 336.333L224.576 335.872ZM222.838 343.594H187.627V345.188H222.838V343.594ZM188.424 344.391V305.403H186.83V344.391H188.424ZM187.627 306.2H225.34V304.606H187.627V306.2ZM224.576 305.173L222.075 313.461L223.602 313.921L226.103 305.633L224.576 305.173ZM222.838 312.894H196.896V314.488H222.838V312.894ZM196.099 313.691V320.802H197.693V313.691H196.099ZM196.896 321.599H221.073V320.005H196.896V321.599ZM220.276 320.802V329.09H221.87V320.802H220.276ZM221.073 328.293H196.896V329.887H221.073V328.293ZM243.714 329.09V328.293H242.917V329.09H243.714ZM243.714 336.103H242.917V336.9H243.714V336.103ZM272.158 336.103L272.921 336.333L273.231 335.306H272.158V336.103ZM269.657 344.391V345.188H270.249L270.42 344.621L269.657 344.391ZM234.446 344.391H233.648V345.188H234.446V344.391ZM234.446 305.403V304.606H233.648V305.403H234.446ZM272.158 305.403L272.921 305.633L273.231 304.606H272.158V305.403ZM269.657 313.691V314.488H270.249L270.42 313.921L269.657 313.691ZM243.714 313.691V312.894H242.917V313.691H243.714ZM243.714 320.802H242.917V321.599H243.714V320.802ZM267.892 320.802H268.689V320.005H267.892V320.802ZM267.892 329.09V329.887H268.689V329.09H267.892ZM242.917 329.09V336.103H244.511V329.09H242.917ZM243.714 336.9H272.158V335.306H243.714V336.9ZM271.395 335.872L268.894 344.16L270.42 344.621L272.921 336.333L271.395 335.872ZM269.657 343.594H234.446V345.188H269.657V343.594ZM235.243 344.391V305.403H233.648V344.391H235.243ZM234.446 306.2H272.158V304.606H234.446V306.2ZM271.395 305.173L268.894 313.461L270.42 313.921L272.921 305.633L271.395 305.173ZM269.657 312.894H243.714V314.488H269.657V312.894ZM242.917 313.691V320.802H244.511V313.691H242.917ZM243.714 321.599H267.892V320.005H243.714V321.599ZM267.095 320.802V329.09H268.689V320.802H267.095ZM267.892 328.293H243.714V329.887H267.892V328.293ZM281.215 319.478L281.007 318.708L280.418 318.867V319.478H281.215ZM290.484 316.977H291.281V315.936L290.276 316.207L290.484 316.977ZM290.484 336.103H289.687V336.9H290.484V336.103ZM311.474 331.444L310.754 331.101L310.75 331.109L311.474 331.444ZM310.002 315.8L310.584 315.255L310.579 315.25L310.002 315.8ZM281.215 313.691L280.452 313.461L280.142 314.488H281.215V313.691ZM283.716 305.403V304.606H283.124L282.953 305.173L283.716 305.403ZM318.83 312.072L319.485 311.618L319.483 311.616L318.83 312.072ZM318.388 338.702L319.008 339.203L319.009 339.203L318.388 338.702ZM306.226 344.391V345.188L306.231 345.188L306.226 344.391ZM281.215 344.391H280.418V345.188H281.215V344.391ZM281.423 320.247L290.692 317.746L290.276 316.207L281.007 318.708L281.423 320.247ZM289.687 316.977V336.103H291.281V316.977H289.687ZM290.484 336.9H305.098V335.306H290.484V336.9ZM305.098 336.9C306.661 336.9 308.062 336.465 309.271 335.582C310.471 334.705 311.437 333.419 312.197 331.779L310.75 331.109C310.071 332.575 309.256 333.618 308.331 334.294C307.414 334.964 306.347 335.306 305.098 335.306V336.9ZM312.193 331.786C313.199 329.671 313.693 327.295 313.693 324.676H312.099C312.099 327.092 311.644 329.228 310.754 331.101L312.193 331.786ZM313.693 324.676C313.693 320.691 312.696 317.509 310.584 315.255L309.421 316.344C311.167 318.209 312.099 320.945 312.099 324.676H313.693ZM310.579 315.25C309.09 313.687 307.247 312.894 305.098 312.894V314.488C306.807 314.488 308.234 315.1 309.425 316.35L310.579 315.25ZM305.098 312.894H281.215V314.488H305.098V312.894ZM281.978 313.921L284.479 305.633L282.953 305.173L280.452 313.461L281.978 313.921ZM283.716 306.2H306.226V304.606H283.716V306.2ZM306.226 306.2C311.255 306.2 315.215 308.29 318.176 312.529L319.483 311.616C316.232 306.962 311.79 304.606 306.226 304.606V306.2ZM318.175 312.526C320.654 316.105 321.907 320.339 321.907 325.265H323.501C323.501 320.055 322.171 315.494 319.485 311.618L318.175 312.526ZM321.907 325.265C321.907 330.511 320.511 334.803 317.768 338.201L319.009 339.203C322.02 335.473 323.501 330.807 323.501 325.265H321.907ZM317.769 338.201C314.886 341.765 311.063 343.562 306.221 343.594L306.231 345.188C311.525 345.154 315.809 343.159 319.008 339.203L317.769 338.201ZM306.226 343.594H281.215V345.188H306.226V343.594ZM282.012 344.391V319.478H280.418V344.391H282.012Z" fill="white"/>
<path d="M139.781 361.762H138.984V362.559H139.781V361.762ZM139.781 355.974V355.176H138.984V355.974H139.781ZM168.244 355.974L169.007 356.204L169.317 355.176H168.244V355.974ZM166.497 361.762V362.559H167.089L167.26 361.992L166.497 361.762ZM156.325 361.762V360.965H155.528V361.762H156.325ZM156.325 383.203V384H157.122V383.203H156.325ZM149.817 383.203H149.02V384H149.817V383.203ZM149.817 361.762H150.614V360.965H149.817V361.762ZM140.579 361.762V355.974H138.984V361.762H140.579ZM139.781 356.771H168.244V355.176H139.781V356.771ZM167.481 355.743L165.734 361.532L167.26 361.992L169.007 356.204L167.481 355.743ZM166.497 360.965H156.325V362.559H166.497V360.965ZM155.528 361.762V383.203H157.122V361.762H155.528ZM156.325 382.406H149.817V384H156.325V382.406ZM150.614 383.203V361.762H149.02V383.203H150.614ZM149.817 360.965H139.781V362.559H149.817V360.965ZM180.152 372.517V371.72H179.355V372.517H180.152ZM180.152 377.415H179.355V378.212H180.152V377.415ZM200.018 377.415L200.781 377.645L201.091 376.618H200.018V377.415ZM198.271 383.203V384H198.863L199.034 383.433L198.271 383.203ZM173.679 383.203H172.882V384H173.679V383.203ZM173.679 355.974V355.176H172.882V355.974H173.679ZM200.018 355.974L200.781 356.204L201.091 355.176H200.018V355.974ZM198.271 361.762V362.559H198.863L199.034 361.992L198.271 361.762ZM180.152 361.762V360.965H179.355V361.762H180.152ZM180.152 366.728H179.355V367.526H180.152V366.728ZM197.038 366.728H197.835V365.931H197.038V366.728ZM197.038 372.517V373.314H197.835V372.517H197.038ZM179.355 372.517V377.415H180.95V372.517H179.355ZM180.152 378.212H200.018V376.618H180.152V378.212ZM199.255 377.184L197.508 382.973L199.034 383.433L200.781 377.645L199.255 377.184ZM198.271 382.406H173.679V384H198.271V382.406ZM174.476 383.203V355.974H172.882V383.203H174.476ZM173.679 356.771H200.018V355.176H173.679V356.771ZM199.255 355.743L197.508 361.532L199.034 361.992L200.781 356.204L199.255 355.743ZM198.271 360.965H180.152V362.559H198.271V360.965ZM179.355 361.762V366.728H180.95V361.762H179.355ZM180.152 367.526H197.038V365.931H180.152V367.526ZM196.241 366.728V372.517H197.835V366.728H196.241ZM197.038 371.72H180.152V373.314H197.038V371.72ZM206.857 368.989L207.49 368.505L207.489 368.502L206.857 368.989ZM207.919 358.337L207.395 357.737L207.391 357.74L207.919 358.337ZM233.505 355.974L234.268 356.204L234.578 355.176H233.505V355.974ZM231.758 361.762V362.559H232.35L232.521 361.992L231.758 361.762ZM212.303 363.303L211.575 362.98L211.571 362.989L212.303 363.303ZM213.536 366.42L213.194 367.14L213.201 367.144L213.209 367.147L213.536 366.42ZM232.409 370.085L233.033 369.589L233.029 369.585L232.409 370.085ZM205.247 383.203L204.484 382.973L204.174 384H205.247V383.203ZM206.994 377.415V376.618H206.402L206.231 377.184L206.994 377.415ZM227.168 375.908L226.444 375.574L226.44 375.583L226.436 375.592L227.168 375.908ZM226.004 372.825L226.36 372.112L226.353 372.109L226.346 372.105L226.004 372.825ZM215.009 371.685C211.536 371.685 209.084 370.588 207.49 368.505L206.224 369.473C208.193 372.048 211.175 373.28 215.009 373.28V371.685ZM207.489 368.502C206.523 367.249 206.045 365.845 206.045 364.262H204.45C204.45 366.197 205.045 367.943 206.226 369.475L207.489 368.502ZM206.045 364.262C206.045 362.116 206.837 360.358 208.447 358.934L207.391 357.74C205.439 359.466 204.45 361.659 204.45 364.262H206.045ZM208.443 358.937C210.072 357.515 212.235 356.771 215.009 356.771V355.176C211.938 355.176 209.374 356.008 207.395 357.737L208.443 358.937ZM215.009 356.771H233.505V355.176H215.009V356.771ZM232.741 355.743L230.995 361.532L232.521 361.992L234.268 356.204L232.741 355.743ZM231.758 360.965H215.077V362.559H231.758V360.965ZM215.077 360.965C214.287 360.965 213.565 361.11 212.952 361.451C212.329 361.797 211.869 362.318 211.575 362.98L213.032 363.627C213.194 363.261 213.425 363.012 213.726 362.844C214.039 362.671 214.475 362.559 215.077 362.559V360.965ZM211.571 362.989C211.395 363.399 211.301 363.826 211.301 364.262H212.895C212.895 364.06 212.938 363.847 213.036 363.617L211.571 362.989ZM211.301 364.262C211.301 364.889 211.456 365.473 211.794 365.98C212.13 366.484 212.614 366.864 213.194 367.14L213.879 365.7C213.5 365.52 213.264 365.311 213.121 365.096C212.98 364.885 212.895 364.618 212.895 364.262H211.301ZM213.209 367.147C213.782 367.405 214.41 367.526 215.077 367.526V365.931C214.604 365.931 214.204 365.846 213.863 365.693L213.209 367.147ZM215.077 367.526H224.462V365.931H215.077V367.526ZM224.462 367.526C227.772 367.526 230.168 368.576 231.788 370.585L233.029 369.585C231.041 367.119 228.14 365.931 224.462 365.931V367.526ZM231.784 370.581C232.815 371.879 233.324 373.337 233.324 374.983H234.918C234.918 372.975 234.286 371.168 233.033 369.589L231.784 370.581ZM233.324 374.983C233.324 377.129 232.532 378.873 230.926 380.273L231.973 381.475C233.929 379.77 234.918 377.587 234.918 374.983H233.324ZM230.926 380.273C229.32 381.673 227.191 382.406 224.462 382.406V384C227.488 384 230.017 383.18 231.973 381.475L230.926 380.273ZM224.462 382.406H205.247V384H224.462V382.406ZM206.011 383.433L207.757 377.645L206.231 377.184L204.484 382.973L206.011 383.433ZM206.994 378.212H224.394V376.618H206.994V378.212ZM224.394 378.212C225.191 378.212 225.917 378.071 226.53 377.738C227.155 377.398 227.615 376.883 227.9 376.224L226.436 375.592C226.287 375.937 226.068 376.175 225.769 376.337C225.456 376.507 225.013 376.618 224.394 376.618V378.212ZM227.892 376.242C228.076 375.843 228.171 375.421 228.171 374.983H226.576C226.576 375.185 226.534 375.379 226.444 375.574L227.892 376.242ZM228.171 374.983C228.171 374.364 228.025 373.786 227.704 373.28C227.384 372.776 226.92 372.392 226.36 372.112L225.647 373.538C226 373.715 226.222 373.919 226.358 374.134C226.494 374.348 226.576 374.62 226.576 374.983H228.171ZM226.346 372.105C225.748 371.82 225.092 371.685 224.394 371.685V373.28C224.883 373.28 225.3 373.373 225.661 373.545L226.346 372.105ZM224.394 371.685H215.009V373.28H224.394V371.685ZM238.254 361.762H237.457V362.559H238.254V361.762ZM238.254 355.974V355.176H237.457V355.974H238.254ZM266.717 355.974L267.48 356.204L267.79 355.176H266.717V355.974ZM264.97 361.762V362.559H265.562L265.733 361.992L264.97 361.762ZM254.798 361.762V360.965H254.001V361.762H254.798ZM254.798 383.203V384H255.595V383.203H254.798ZM248.29 383.203H247.493V384H248.29V383.203ZM248.29 361.762H249.087V360.965H248.29V361.762ZM239.052 361.762V355.974H237.457V361.762H239.052ZM238.254 356.771H266.717V355.176H238.254V356.771ZM265.954 355.743L264.207 361.532L265.733 361.992L267.48 356.204L265.954 355.743ZM264.97 360.965H254.798V362.559H264.97V360.965ZM254.001 361.762V383.203H255.595V361.762H254.001ZM254.798 382.406H248.29V384H254.798V382.406ZM249.087 383.203V361.762H247.493V383.203H249.087ZM248.29 360.965H238.254V362.559H248.29V360.965Z" fill="white"/>
</g>
<defs>
<linearGradient id="paint0_linear_726_7159" x1="739.594" y1="58.6708" x2="647.248" y2="251.115" gradientUnits="userSpaceOnUse">
<stop stop-color="#54FFD6"/>
<stop offset="1" stop-color="#40A3FF"/>
</linearGradient>
<clipPath id="clip0_726_7159">
<rect x="0.5" y="0.878906" width="408.123" height="408.123" rx="70.1461" fill="white"/>
</clipPath>
</defs>
</svg>
