<svg width="409" height="409" viewBox="0 0 409 409" fill="none" xmlns="http://www.w3.org/2000/svg">
<g clip-path="url(#clip0_726_7135)">
<rect x="0.0258789" width="408.123" height="408.123" rx="63.7692" fill="#2E2E2E"/>
<rect x="0.0258789" width="408.123" height="408.123" rx="63.7692" fill="#151515"/>
<g opacity="0.6">
<path d="M406.953 -4.20312L-0.372314 403.122" stroke="white" stroke-width="1.99279"/>
<path d="M-0.372166 -6.20312L406.953 401.122" stroke="white" stroke-width="1.99279"/>
<circle cx="202.892" cy="204.46" r="67.7547" stroke="white" stroke-width="1.99279"/>
<circle cx="202.892" cy="204.459" r="157.032" stroke="white" stroke-width="1.99279"/>
<path d="M33.301 0V407.724" stroke="white" stroke-width="1.99279"/>
<path d="M408.148 33.1348L0.16551 33.1347" stroke="white" stroke-width="1.99279"/>
<path d="M90.2532 0V407.724" stroke="white" stroke-width="1.99279"/>
<path d="M408.148 87.498L0.16551 87.498" stroke="white" stroke-width="1.99279"/>
<path d="M147.205 0V407.724" stroke="white" stroke-width="1.99279"/>
<path d="M408.148 141.861L0.16551 141.861" stroke="white" stroke-width="1.99279"/>
<path d="M204.157 0V407.724" stroke="white" stroke-width="1.99279"/>
<path d="M408.148 196.227L0.16551 196.227" stroke="white" stroke-width="1.99279"/>
<path d="M261.109 0V407.724" stroke="white" stroke-width="1.99279"/>
<path d="M408.148 250.59L0.16551 250.59" stroke="white" stroke-width="1.99279"/>
<path d="M318.061 0V407.724" stroke="white" stroke-width="1.99279"/>
<path d="M408.148 304.953L0.16551 304.953" stroke="white" stroke-width="1.99279"/>
<path d="M375.013 0V407.724" stroke="white" stroke-width="1.99279"/>
<path d="M408.148 359.316L0.16551 359.316" stroke="white" stroke-width="1.99279"/>
</g>
</g>
<rect x="0.822993" y="0.797114" width="406.528" height="406.528" rx="62.972" stroke="white" stroke-width="1.59423"/>
<defs>
<clipPath id="clip0_726_7135">
<rect x="0.0258789" width="408.123" height="408.123" rx="63.7692" fill="white"/>
</clipPath>
</defs>
</svg>
