<?xml version="1.0" standalone="no"?>
<!DOCTYPE svg PUBLIC "-//W3C//DTD SVG 1.1//EN" "http://www.w3.org/Graphics/SVG/1.1/DTD/svg11.dtd" >
<svg xmlns="http://www.w3.org/2000/svg" xmlns:xlink="http://www.w3.org/1999/xlink" version="1.1">
<metadata>
Created by FontForge 20201107 at Tue Sep  4 13:55:04 2018
 By Jimmy Wärting
Copyright \(c\) 2017 by Matthieu Salvaggio . All rights reserved.
</metadata>
<defs>
<font id="Surt-BlackExtended" horiz-adv-x="313" >
  <font-face 
    font-family="Surt Black Extended"
    font-weight="900"
    font-stretch="expanded"
    units-per-em="1000"
    panose-1="0 0 10 5 0 0 0 0 0 0"
    ascent="760"
    descent="-240"
    x-height="525"
    cap-height="760"
    bbox="-51 -240 1337 853"
    underline-thickness="50"
    underline-position="-100"
    stemh="164"
    stemv="210"
    unicode-range="U+0020-20AC"
  />
<missing-glyph horiz-adv-x="839" 
d="M101 0v751h637v-751h-637zM251 276l255 315h-255v-315zM334 160h254v315z" />
    <glyph glyph-name=".notdef" horiz-adv-x="839" 
d="M101 0v751h637v-751h-637zM251 276l255 315h-255v-315zM334 160h254v315z" />
    <glyph glyph-name="A" unicode="A" horiz-adv-x="934" 
d="M-1 0l361 760h216l360 -760h-233l-66 130h-339l-67 -130h-232zM364 317h207l-103 206z" />
    <glyph glyph-name="B" unicode="B" horiz-adv-x="816" 
d="M63 0v760h354c191 0 326 -58 326 -192c0 -73 -45 -137 -129 -150c114 -22 177 -103 177 -190c0 -152 -145 -228 -338 -228h-390zM274 460h114c84 0 130 20 130 58c0 44 -48 63 -125 63h-119v-121zM274 179h132c92 0 160 18 160 72c0 58 -70 75 -161 75h-131v-147z" />
    <glyph glyph-name="C" unicode="C" horiz-adv-x="974" 
d="M487 -16c-309 0 -457 184 -457 388c0 224 168 404 463 404c280 0 436 -176 454 -342h-225c-22 76 -97 163 -234 163c-158 0 -233 -108 -233 -218s75 -216 232 -216c141 0 214 91 235 163h225c-20 -171 -173 -342 -460 -342z" />
    <glyph glyph-name="D" unicode="D" horiz-adv-x="907" 
d="M444 0h-381v760h395c280 0 423 -79 423 -372c0 -318 -149 -388 -437 -388zM274 179h143c163 0 239 12 239 200c0 192 -72 202 -239 202h-143v-402z" />
    <glyph glyph-name="E" unicode="E" horiz-adv-x="811" 
d="M272 210h476v-210h-685v760h665v-210h-456v-78h418v-188h-418v-74z" />
    <glyph glyph-name="F" unicode="F" horiz-adv-x="706" 
d="M715 550h-443v-78h403v-188h-403v-284h-209v760h652v-210z" />
    <glyph glyph-name="G" unicode="G" horiz-adv-x="994" 
d="M531 -16c-315 0 -501 156 -501 399c0 248 188 393 465 393c248 0 430 -125 452 -288h-225c-28 60 -101 109 -223 109c-149 0 -244 -71 -244 -212c0 -137 93 -222 277 -222c80 0 175 13 218 59v49h-291v164h488v-269c-73 -112 -237 -182 -416 -182z" />
    <glyph glyph-name="H" unicode="H" horiz-adv-x="900" 
d="M627 760h210v-760h-210v273h-353v-273h-211v760h211v-288h353v288z" />
    <glyph glyph-name="I" unicode="I" horiz-adv-x="326" 
d="M58 0v760h210v-760h-210z" />
    <glyph glyph-name="J" unicode="J" horiz-adv-x="776" 
d="M354 -16c-241 0 -355 101 -367 292h222c11 -78 44 -113 144 -113c148 0 154 79 154 217v380h212v-492c0 -194 -106 -284 -365 -284z" />
    <glyph glyph-name="K" unicode="K" horiz-adv-x="816" 
d="M817 0h-255l-288 306v-306h-211v760h211v-296l265 296h255l-352 -378z" />
    <glyph glyph-name="L" unicode="L" horiz-adv-x="702" 
d="M272 210h444v-210h-653v760h209v-550z" />
    <glyph glyph-name="M" unicode="M" horiz-adv-x="1111" 
d="M63 0v760h232l260 -523l260 523h232v-760h-210v358l-183 -358h-197l-183 358v-358h-211z" />
    <glyph glyph-name="N" unicode="N" horiz-adv-x="900" 
d="M63 0v760h202l362 -408v408h210v-760h-205l-358 399v-399h-211z" />
    <glyph glyph-name="O" unicode="O" horiz-adv-x="999" 
d="M499 -16c-304 0 -469 187 -469 396s165 396 469 396c306 0 470 -187 470 -396s-164 -396 -470 -396zM500 163c164 0 241 128 241 217s-77 217 -241 217c-165 0 -241 -128 -241 -217s76 -217 241 -217z" />
    <glyph glyph-name="P" unicode="P" horiz-adv-x="768" 
d="M63 0v760h359c189 0 321 -88 321 -253c0 -181 -145 -257 -340 -257h-129v-250h-211zM274 429h103c76 0 141 14 141 73c0 61 -66 79 -141 79h-103v-152z" />
    <glyph glyph-name="Q" unicode="Q" horiz-adv-x="999" 
d="M969 380c0 -116 -51 -226 -149 -300l149 -146h-231l-73 71c-49 -14 -105 -21 -166 -21c-304 0 -469 187 -469 396s165 396 469 396c306 0 470 -187 470 -396zM500 163h4l-119 116h231l55 -54c49 45 73 106 73 155c0 89 -78 217 -244 217c-167 0 -245 -128 -245 -217
s78 -217 245 -217z" />
    <glyph glyph-name="R" unicode="R" horiz-adv-x="791" 
d="M63 0v760h354c195 0 326 -89 326 -243c0 -126 -118 -231 -241 -246l299 -271h-255l-272 249v-249h-211zM274 427h107c70 0 137 14 137 73c0 63 -67 81 -141 81h-103v-154z" />
    <glyph glyph-name="S" unicode="S" horiz-adv-x="822" 
d="M442 -16c-261 0 -392 99 -410 262h229c24 -61 85 -91 183 -91c78 0 122 21 122 53c0 31 -69 54 -138 74c-59 18 -119 33 -174 56c-106 42 -189 102 -189 211c0 163 179 227 351 227c224 0 347 -99 355 -254h-231c-10 66 -74 85 -134 85c-43 0 -108 -13 -108 -50
c-1 -29 30 -46 95 -64c35 -9 66 -21 162 -50c75 -23 234 -55 233 -227c0 -154 -129 -232 -346 -232z" />
    <glyph glyph-name="T" unicode="T" horiz-adv-x="756" 
d="M757 550h-273v-550h-211v550h-274v210h757z" />
    <glyph glyph-name="U" unicode="U" horiz-adv-x="884" 
d="M450 -16c-279 0 -387 88 -387 287v489h211v-378c0 -137 9 -219 176 -219c168 0 177 82 177 219v378h210v-489c0 -209 -112 -287 -387 -287z" />
    <glyph glyph-name="V" unicode="V" horiz-adv-x="910" 
d="M348 0l-361 760h232l237 -523l235 523h233l-360 -760h-216z" />
    <glyph glyph-name="W" unicode="W" horiz-adv-x="1323" 
d="M230 0l-243 760h232l139 -523l176 523h256l177 -523l137 523h233l-243 -760h-234l-198 544l-197 -544h-235z" />
    <glyph glyph-name="X" unicode="X" horiz-adv-x="881" 
d="M882 0h-244l-198 235l-198 -235h-243l313 383l-291 377h244l175 -220l176 220h244l-291 -377z" />
    <glyph glyph-name="Y" unicode="Y" horiz-adv-x="834" 
d="M311 0v266l-315 494h233l188 -309l188 309h234l-316 -494v-266h-212z" />
    <glyph glyph-name="Z" unicode="Z" horiz-adv-x="840" 
d="M312 210h498v-210h-774v210l460 340h-448v210h723l2 -210z" />
    <glyph glyph-name="I.ss01" horiz-adv-x="874" 
d="M58 0v210h274v340h-274v210h757l1 -210h-273v-340h273l-1 -210h-757z" />
    <glyph glyph-name="J.ss01" horiz-adv-x="776" 
d="M354 -16c-241 0 -355 101 -367 292h222c11 -78 44 -113 144 -113c149 0 155 79 155 217v170h-458v210h669v-492c0 -194 -106 -284 -365 -284z" />
    <glyph glyph-name="K.ss01" horiz-adv-x="840" 
d="M561 403l280 -403h-253l-157 186l-156 -186l-211 -2l1 2h-2v760h211v-443l292 443h251z" />
    <glyph glyph-name="M.ss01" horiz-adv-x="1111" 
d="M63 0v760h233l259 -413l259 413h233v-760h-210v456l-183 -289h-197l-183 289v-456h-211z" />
    <glyph glyph-name="Q.ss01" horiz-adv-x="999" 
d="M499 -16c-10 0 -21 0 -31 1l-41 -60h411v-151h-614v151l66 94c-170 64 -260 206 -260 361c0 209 165 396 469 396c306 0 470 -187 470 -396s-164 -396 -470 -396zM500 597c-165 0 -241 -128 -241 -217s76 -217 241 -217c164 0 241 128 241 217s-77 217 -241 217z" />
    <glyph glyph-name="R.ss01" horiz-adv-x="799" 
d="M63 0v760h354c195 0 326 -89 326 -254c0 -101 -65 -192 -174 -228l232 -278h-243l-220 247h-64v-247h-211zM274 427h107c70 0 137 14 137 74c0 62 -67 80 -141 80h-103v-154z" />
    <glyph glyph-name="U.ss01" horiz-adv-x="884" 
d="M418 -16c-251 0 -355 85 -355 287v489h211v-378c0 -136 9 -219 176 -219c168 0 177 83 177 219v378h210v-760h-210v44c-42 -41 -102 -60 -209 -60z" />
    <glyph glyph-name="X.ss01" horiz-adv-x="929" 
d="M-1 0l313 383l-291 377h244l199 -253l200 253h244l-291 -377l313 -383h-244l-222 266l-222 -266h-243z" />
    <glyph glyph-name="a" unicode="a" horiz-adv-x="681" 
d="M234 -11c-140 0 -205 64 -205 152c0 53 24 95 75 124c57 31 146 48 285 48h40v23c0 43 -23 63 -82 63c-68 0 -86 -29 -89 -54h-200c5 112 68 196 292 196c188 0 291 -66 291 -236v-171v-77v-57h-202c0 41 0 58 -2 75h-4c-33 -49 -80 -86 -199 -86zM324 114
c77 0 107 33 107 57v44h-47c-75 0 -142 -20 -142 -57c0 -34 36 -44 82 -44z" />
    <glyph glyph-name="b" unicode="b" horiz-adv-x="716" 
d="M427 541c160 0 267 -111 267 -277c0 -168 -108 -280 -271 -280c-65 0 -137 27 -177 70v-54h-206v760h210v-292c43 45 109 73 177 73zM369 141c73 0 121 49 121 122c0 72 -48 121 -122 121c-71 0 -118 -44 -118 -109v-23c0 -67 48 -111 119 -111z" />
    <glyph glyph-name="c" unicode="c" horiz-adv-x="689" 
d="M335 -16c-197 0 -313 113 -313 279c0 164 116 278 313 278c176 0 302 -97 314 -234h-206c-9 49 -50 77 -104 77c-65 0 -113 -33 -113 -121s48 -122 113 -122c54 0 97 28 105 89h206c-10 -146 -132 -246 -315 -246z" />
    <glyph glyph-name="d" unicode="d" horiz-adv-x="758" 
d="M489 760h210v-760h-206v54c-39 -43 -112 -70 -176 -70c-163 0 -272 112 -272 280c0 166 107 277 267 277c68 0 134 -28 177 -73v292zM489 250v23c0 67 -47 111 -118 111c-73 0 -122 -49 -122 -121c0 -73 48 -122 123 -122c70 0 117 43 117 109z" />
    <glyph glyph-name="e" unicode="e" horiz-adv-x="689" 
d="M335 -16c-197 0 -313 113 -313 278s117 279 310 279c175 0 315 -96 315 -286v-38h-418c10 -48 49 -76 115 -76c55 0 92 21 100 57h206c-10 -114 -132 -214 -315 -214zM231 323h211c-1 31 -46 61 -104 61c-64 0 -107 -28 -107 -61z" />
    <glyph glyph-name="f" unicode="f" horiz-adv-x="462" 
d="M108 0v336h-73v189h71v36c0 97 47 215 238 215c71 0 97 -3 106 -6v-165c-6 1 -15 3 -35 3c-73 0 -99 -33 -99 -66v-17h124v-189h-124v-336h-208z" />
    <glyph glyph-name="g" unicode="g" horiz-adv-x="715" 
d="M465 525h210v-412c0 -233 -82 -353 -304 -353c-188 0 -301 79 -325 201h201c10 -28 50 -56 110 -56c72 0 105 25 108 104v42c-40 -38 -93 -67 -171 -67c-160 0 -272 113 -272 279c0 164 104 278 264 278c80 0 141 -33 179 -71v55zM465 250v23c0 80 -54 111 -118 111
c-67 0 -122 -33 -122 -121c0 -90 56 -122 123 -122c63 0 117 31 117 109z" />
    <glyph glyph-name="h" unicode="h" horiz-adv-x="748" 
d="M40 0v760h210v-314c51 69 123 95 205 95c150 0 234 -69 234 -222v-319h-210v224c0 126 -44 160 -105 160c-72 0 -124 -63 -124 -155v-229h-210z" />
    <glyph glyph-name="i" unicode="i" horiz-adv-x="296" 
d="M40 573v187h216v-187h-216zM44 0v525h210v-525h-210z" />
    <glyph glyph-name="j" unicode="j" horiz-adv-x="336" 
d="M80 573v187h216v-187h-216zM70 -240c-86 0 -121 6 -121 6v141s13 -3 38 -3c69 0 96 45 96 101v520h210v-582c0 -100 -76 -183 -223 -183z" />
    <glyph glyph-name="k" unicode="k" horiz-adv-x="594" 
d="M588 1h-205l-133 151v-152h-210v760h210v-462l127 227h205l-164 -262z" />
    <glyph glyph-name="l" unicode="l" horiz-adv-x="290" 
d="M40 0v760h210v-760h-210z" />
    <glyph glyph-name="m" unicode="m" horiz-adv-x="1184" 
d="M896 541c150 0 232 -82 232 -232v-309h-210v223c0 123 -48 161 -104 161c-74 0 -125 -63 -125 -155v-229h-210v223c0 123 -48 161 -104 161c-74 0 -125 -63 -125 -155v-229h-210v525h210v-79c50 69 121 95 207 95c101 0 173 -37 208 -108c67 85 150 108 231 108z" />
    <glyph glyph-name="n" unicode="n" horiz-adv-x="745" 
d="M40 0v525h210v-79c51 69 123 95 205 95c150 0 234 -80 234 -234v-307h-210v224c0 126 -44 160 -105 160c-72 0 -124 -63 -124 -155v-229h-210z" />
    <glyph glyph-name="o" unicode="o" horiz-adv-x="698" 
d="M350 -16c-204 0 -328 113 -328 279c0 164 124 278 328 278c203 0 326 -114 326 -278c0 -166 -123 -279 -326 -279zM349 141c68 0 123 33 123 122c0 88 -55 121 -123 121c-67 0 -123 -33 -123 -121c0 -89 56 -122 123 -122z" />
    <glyph glyph-name="p" unicode="p" horiz-adv-x="716" 
d="M427 541c160 0 267 -111 267 -277c0 -168 -108 -280 -271 -280c-65 0 -134 27 -173 70v-294h-210v765h206v-57c44 45 113 73 181 73zM369 141c73 0 121 49 121 122c0 72 -48 121 -122 121c-71 0 -118 -44 -118 -109v-23c0 -67 48 -111 119 -111z" />
    <glyph glyph-name="q" unicode="q" horiz-adv-x="759" 
d="M470 525h206v-765h-210v294c-39 -43 -108 -70 -172 -70c-163 0 -272 112 -272 280c0 166 107 277 267 277c68 0 138 -28 181 -73v57zM466 250v23c0 67 -48 111 -119 111c-72 0 -121 -49 -121 -121c0 -73 49 -122 122 -122c71 0 118 43 118 109z" />
    <glyph glyph-name="r" unicode="r" horiz-adv-x="479" 
d="M40 0v525h204v-99c25 41 59 78 105 95c35 13 71 17 123 17v-207h-16c-147 0 -206 -80 -206 -189v-142h-210z" />
    <glyph glyph-name="s" unicode="s" horiz-adv-x="642" 
d="M333 -16c-184 0 -294 66 -305 188h190c9 -21 39 -44 118 -44c54 0 78 11 78 27c0 19 -42 26 -118 42c-156 34 -245 88 -246 186c-1 110 116 158 273 158c185 0 277 -65 286 -176h-195c-6 22 -40 35 -96 35c-55 0 -84 -12 -84 -23c0 -25 90 -36 205 -66
c128 -34 178 -82 178 -157c0 -108 -103 -170 -284 -170z" />
    <glyph glyph-name="t" unicode="t" horiz-adv-x="496" 
d="M325 -10c-167 1 -223 74 -223 195v151h-71v173c60 0 82 22 82 76v75h199v-135h116v-189h-116v-80c0 -54 37 -64 99 -64h38v-196c-29 -4 -57 -6 -124 -6z" />
    <glyph glyph-name="u" unicode="u" horiz-adv-x="746" 
d="M289 -16c-149 0 -232 82 -232 232v309h210v-223c0 -123 48 -161 103 -161c75 0 126 63 126 155v229h210v-525h-210v78c-50 -68 -120 -94 -207 -94z" />
    <glyph glyph-name="v" unicode="v" horiz-adv-x="700" 
d="M244 0l-237 525h213l109 -282l20 -52h2l20 52l109 282h213l-238 -525h-211z" />
    <glyph glyph-name="w" unicode="w" horiz-adv-x="1128" 
d="M244 0l-237 525h213l129 -334h2l125 334h176l125 -334h2l129 334h213l-238 -525h-210l-108 332h-2l-108 -332h-211z" />
    <glyph glyph-name="x" unicode="x" horiz-adv-x="641" 
d="M634 525l-181 -262l181 -262h-203l-110 155l-110 -155h-204l181 262l-181 262h204l108 -154l112 154h203z" />
    <glyph glyph-name="y" unicode="y" horiz-adv-x="700" 
d="M136 -240l108 241l-237 524h213l110 -280l19 -53h2l19 53l110 280h213l-225 -503l-118 -262h-214z" />
    <glyph glyph-name="z" unicode="z" horiz-adv-x="692" 
d="M275 162h377v-162h-605v162l348 201h-337v162h564l1 -162z" />
    <glyph glyph-name="a.ss01" horiz-adv-x="724" 
d="M307 -16c-164 0 -277 114 -277 281c0 162 107 276 274 276c82 0 132 -28 170 -69v53h210v-525h-210v52c-21 -23 -72 -68 -167 -68zM356 141c67 0 118 40 118 109v23c0 71 -52 111 -119 111s-122 -33 -122 -121c0 -90 56 -122 123 -122z" />
    <glyph glyph-name="d.ss01" horiz-adv-x="759" 
d="M299 -16c-166 0 -277 112 -277 281c0 166 109 276 275 276c65 0 134 -28 169 -70v289h210v-760h-162l-48 54c-25 -43 -93 -70 -167 -70zM348 141c71 0 118 43 118 109v23c0 67 -48 111 -119 111c-72 0 -121 -49 -121 -121c0 -73 49 -122 122 -122z" />
    <glyph glyph-name="i.ss01" horiz-adv-x="321" 
d="M160 546c-64 0 -120 50 -120 118c0 63 56 114 120 114c67 0 122 -51 122 -114c0 -68 -55 -118 -122 -118zM56 0v525h210v-525h-210z" />
    <glyph glyph-name="j.ss01" horiz-adv-x="350" 
d="M188 546c-65 0 -120 50 -120 118c0 63 55 114 120 114c67 0 122 -51 122 -114c0 -68 -55 -118 -122 -118zM70 -240c-86 0 -121 6 -121 6v141s13 -3 38 -3c69 0 96 45 96 101v520h210v-582c0 -100 -76 -183 -223 -183z" />
    <glyph glyph-name="k.ss01" horiz-adv-x="699" 
d="M692 0h-204l-109 150l-129 -150h-210v760h210v-461l197 226h218l-177 -213z" />
    <glyph glyph-name="l.ss01" horiz-adv-x="290" 
d="M40 0v760h174l36 -236v-524h-210z" />
    <glyph glyph-name="n.ss01" horiz-adv-x="745" 
d="M40 0v525h649v-525h-210v320h-229v-320h-210z" />
    <glyph glyph-name="q.ss01" horiz-adv-x="759" 
d="M466 -240v294c-25 -43 -93 -70 -167 -70c-166 0 -277 112 -277 281c0 166 109 276 274 276c66 0 135 -28 170 -70l48 54h162v-765h-210zM348 141c71 0 118 43 118 109v23c0 67 -48 111 -119 111c-72 0 -121 -49 -121 -121c0 -73 49 -122 122 -122z" />
    <glyph glyph-name="r.ss01" horiz-adv-x="499" 
d="M40 0v525h432v-205h-222v-320h-210z" />
    <glyph glyph-name="t.ss01" horiz-adv-x="475" 
d="M102 0v336h-71v189h71v135h210v-135h116v-189h-116v-336h-210z" />
    <glyph glyph-name="u.ss01" horiz-adv-x="814" 
d="M83 0v525h210v-320h229v320h210v-525h-649z" />
    <glyph glyph-name="y.ss01" horiz-adv-x="701" 
d="M244 -240v241l-237 524h213l111 -280l18 -53h2l19 53l111 280h213l-239 -524v-241h-211z" />
    <glyph glyph-name="zero" unicode="0" horiz-adv-x="885" 
d="M444 -16c-256 0 -410 154 -410 396s154 396 410 396c254 0 407 -154 407 -396s-153 -396 -407 -396zM443 163c116 0 185 85 185 217s-69 217 -185 217c-117 0 -185 -85 -185 -217s68 -217 185 -217z" />
    <glyph glyph-name="one" unicode="1" horiz-adv-x="522" 
d="M213 0v550h-181v210h390v-760h-209z" />
    <glyph glyph-name="two" unicode="2" horiz-adv-x="826" 
d="M64 -1v211c157 80 277 152 364 203c85 49 130 86 130 121c0 39 -62 62 -143 62c-74 0 -159 -7 -159 -104c0 -28 5 -42 11 -59h-224c-7 22 -9 34 -9 57c0 157 116 286 390 286c249 0 356 -105 356 -231c0 -76 -46 -129 -129 -188c-66 -47 -148 -94 -258 -147h399v-211
h-728z" />
    <glyph glyph-name="three" unicode="3" horiz-adv-x="860" 
d="M428 -16c-231 0 -367 91 -394 247h227c16 -50 82 -69 167 -69c126 0 189 36 189 92c0 40 -53 81 -203 81h-150v142l268 96h-443v187h684v-220l-239 -71l4 -2c173 0 288 -88 288 -221c0 -161 -126 -262 -398 -262z" />
    <glyph glyph-name="four" unicode="4" horiz-adv-x="837" 
d="M803 321v-210h-139v-111h-209v111h-421v220l301 429h241l-301 -439h180v135h209v-135h139z" />
    <glyph glyph-name="five" unicode="5" horiz-adv-x="850" 
d="M427 -16c-214 0 -382 102 -393 257h225c5 -45 73 -80 162 -80c109 0 184 43 184 106c0 61 -75 100 -167 100c-76 0 -138 -28 -160 -75h-228l138 468h549v-187h-397l-41 -106c43 35 108 58 196 58c191 0 320 -108 320 -261c0 -170 -151 -280 -388 -280z" />
    <glyph glyph-name="six" unicode="6" horiz-adv-x="877" 
d="M447 -16c-247 0 -393 136 -393 375c0 241 163 417 410 417c175 0 293 -87 316 -227h-216c-18 45 -66 61 -118 61c-103 0 -171 -75 -171 -201c39 62 134 104 248 104c179 0 299 -102 299 -247c0 -170 -154 -282 -375 -282zM439 160c86 0 145 37 145 96
c0 58 -57 99 -145 99c-86 0 -145 -42 -145 -99c0 -58 58 -96 145 -96z" />
    <glyph glyph-name="seven" unicode="7" horiz-adv-x="726" 
d="M93 0l362 550h-421v210h658v-210l-358 -550h-241z" />
    <glyph glyph-name="eight" unicode="8" horiz-adv-x="860" 
d="M431 -16c-302 0 -397 123 -397 232c0 115 88 188 177 191c-67 7 -134 65 -134 164c0 102 92 205 354 205c261 0 352 -101 352 -204c0 -98 -66 -158 -133 -165c85 -3 175 -72 175 -191c0 -109 -91 -232 -394 -232zM430 491c82 0 132 28 132 66s-50 65 -132 65
c-83 0 -133 -27 -133 -65s50 -66 133 -66zM430 161c108 0 162 26 162 72c0 39 -45 75 -162 75c-116 0 -162 -37 -162 -75c0 -46 54 -72 162 -72z" />
    <glyph glyph-name="nine" unicode="9" horiz-adv-x="818" 
d="M395 -16c-221 0 -348 104 -362 217h225c14 -34 69 -57 138 -57c124 0 168 107 168 140v22c-37 -39 -116 -60 -214 -60c-218 0 -312 131 -312 251c0 117 95 279 362 279c261 0 384 -150 384 -384c0 -224 -117 -408 -389 -408zM403 404c90 0 150 39 150 96
c0 60 -60 100 -148 100c-91 0 -152 -40 -152 -100c0 -57 61 -96 150 -96z" />
    <glyph glyph-name="zero.ss01" horiz-adv-x="925" 
d="M464 -16c-279 0 -410 184 -410 396s131 396 410 396c277 0 407 -184 407 -396s-130 -396 -407 -396zM463 162c138 0 185 127 185 218s-47 218 -185 218c-137 0 -186 -127 -186 -218s49 -218 186 -218z" />
    <glyph glyph-name="one.ss01" horiz-adv-x="476" 
d="M233 0v507l-199 -140v253l199 140h209v-760h-209z" />
    <glyph glyph-name="two.ss01" horiz-adv-x="879" 
d="M43 -1l-2 211l200 80c-115 -4 -209 97 -209 224c0 125 97 262 374 262c287 0 365 -149 365 -262s-58 -202 -240 -258l-158 -46h406v-211h-736zM402 413c94 0 150 36 150 93c0 61 -55 99 -150 99c-97 0 -152 -38 -152 -99c0 -58 55 -93 152 -93z" />
    <glyph glyph-name="three.ss01" horiz-adv-x="844" 
d="M417 -16c-304 0 -383 144 -383 272c0 124 57 244 238 278l113 16h-351v211h719l2 -211l-191 -58c152 0 246 -102 246 -239c0 -134 -97 -269 -393 -269zM421 172c95 0 150 36 150 92c0 60 -54 98 -150 98c-97 0 -152 -38 -152 -98c0 -56 55 -92 152 -92z" />
    <glyph glyph-name="four.ss01" horiz-adv-x="813" 
d="M779 321v-210h-90v-111h-208v111h-447v220l435 429h220v-439h90zM275 321h206v158z" />
    <glyph glyph-name="five.ss01" horiz-adv-x="835" 
d="M418 -16c-278 0 -384 138 -384 302c0 41 4 104 29 193c21 70 53 149 93 281h555v-210h-393l-36 -83c42 42 129 56 197 56c198 0 322 -96 322 -263c0 -146 -103 -276 -383 -276zM421 172c95 0 150 36 150 93c0 61 -54 99 -150 99c-97 0 -152 -38 -152 -99
c0 -57 55 -93 152 -93z" />
    <glyph glyph-name="six.ss01" horiz-adv-x="825" 
d="M418 -16c-228 0 -384 97 -384 306c0 122 52 239 274 458l12 12h216l-244 -294c38 44 117 57 181 57c182 0 317 -104 317 -261c0 -149 -114 -278 -372 -278zM410 172c95 0 151 34 151 94s-55 98 -150 98c-93 0 -153 -41 -153 -98c0 -58 56 -94 152 -94z" />
    <glyph glyph-name="seven.ss01" horiz-adv-x="708" 
d="M179 0c8 221 131 442 291 550h-436v210h639v-252c-112 -81 -277 -256 -284 -508h-210z" />
    <glyph glyph-name="nine.ss01" horiz-adv-x="835" 
d="M94 0v184h424l35 86c-42 -31 -125 -44 -193 -44c-201 0 -326 100 -326 268c0 154 110 282 383 282c285 0 384 -145 384 -299c0 -38 -6 -93 -16 -129l-95 -348h-596zM412 404c96 0 151 36 151 93c0 61 -54 99 -150 99c-97 0 -153 -38 -153 -99c0 -57 56 -93 152 -93z" />
    <glyph glyph-name="period" unicode="." 
d="M46 0v203h221v-203h-221z" />
    <glyph glyph-name="comma" unicode="," 
d="M62 -203l80 203h-96v203h221v-203l-101 -203h-104z" />
    <glyph glyph-name="colon" unicode=":" 
d="M46 312v203h221v-203h-221zM46 0v203h221v-203h-221z" />
    <glyph glyph-name="semicolon" unicode=";" 
d="M46 312v203h221v-203h-221zM62 -203l80 203h-96v203h221v-203l-101 -203h-104z" />
    <glyph glyph-name="ellipsis" unicode="&#x2026;" horiz-adv-x="942" 
d="M46 0v203h221v-203h-221zM360 0v203h221v-203h-221zM675 0v203h221v-203h-221z" />
    <glyph glyph-name="exclam" unicode="!" horiz-adv-x="336" 
d="M64 272v488h210v-488h-210zM58 0v203h221v-203h-221z" />
    <glyph glyph-name="exclamdown" unicode="&#xa1;" horiz-adv-x="336" 
d="M58 557v203h221v-203h-221zM64 0v488h210v-488h-210z" />
    <glyph glyph-name="question" unicode="?" horiz-adv-x="780" 
d="M289 241v9c0 89 48 131 99 175c82 70 119 80 119 106c0 39 -50 65 -116 65c-93 0 -137 -58 -130 -129h-210c-12 178 113 309 344 309c194 0 332 -89 332 -219c0 -99 -93 -160 -168 -209c-34 -23 -61 -46 -73 -70c-5 -12 -9 -25 -9 -37h-188zM273 0v203h221v-203h-221z
" />
    <glyph glyph-name="questiondown" unicode="&#xbf;" horiz-adv-x="780" 
d="M506 760v-203h-221v203h221zM491 519v-9c0 -89 -48 -131 -100 -175c-82 -70 -118 -80 -118 -106c0 -39 49 -65 117 -65c92 0 136 58 128 129h211c12 -178 -114 -309 -345 -309c-193 0 -331 89 -331 219c0 99 92 160 167 209c34 23 59 48 72 70c6 12 10 25 10 37h189z" />
    <glyph glyph-name="periodcentered" unicode="&#xb7;" 
d="M46 163v204h221v-204h-221z" />
    <glyph glyph-name="bullet" unicode="&#x2022;" horiz-adv-x="421" 
d="M210 123c-88 0 -164 67 -164 154c0 81 76 148 164 148c91 0 165 -67 165 -148c0 -87 -74 -154 -165 -154z" />
    <glyph glyph-name="asterisk" unicode="*" horiz-adv-x="658" 
d="M191 312l-96 76l151 127l-190 59l53 108l169 -74l-11 152l124 1l-11 -153l170 74l52 -108l-188 -59l149 -127l-94 -76l-139 155z" />
    <glyph glyph-name="numbersign" unicode="#" horiz-adv-x="1087" 
d="M142 0l55 173h-144v146h178l34 105h-140v146h175l58 190h197l-58 -190h186l58 190h196l-57 -190h151v-146h-187l-34 -105h161v-146h-196l-54 -173h-196l53 173h-185l-54 -173h-197zM428 319h185l35 105h-186z" />
    <glyph glyph-name="slash" unicode="/" horiz-adv-x="533" 
d="M2 -116l332 876h198l-332 -876h-198z" />
    <glyph glyph-name="backslash" unicode="\" horiz-adv-x="533" 
d="M532 -116h-198l-332 876h198z" />
    <glyph glyph-name="period.ss01" horiz-adv-x="306" 
d="M143 0c-62 0 -116 48 -116 111c0 58 54 106 116 106c64 0 117 -48 117 -106c0 -63 -53 -111 -117 -111z" />
    <glyph glyph-name="comma.ss01" horiz-adv-x="306" 
d="M260 115c0 -39 -15 -77 -46 -163c-19 -51 -39 -102 -56 -155h-96l63 214c-53 9 -98 52 -98 108c0 62 53 107 118 107c57 0 115 -38 115 -111z" />
    <glyph glyph-name="colon.ss01" horiz-adv-x="306" 
d="M143 307c-62 0 -116 48 -116 111c0 59 54 107 116 107c64 0 117 -48 117 -107c0 -63 -53 -111 -117 -111zM143 0c-62 0 -116 48 -116 111c0 58 54 106 116 106c64 0 117 -48 117 -106c0 -63 -53 -111 -117 -111z" />
    <glyph glyph-name="semicolon.ss01" horiz-adv-x="306" 
d="M149 319c-61 0 -113 44 -113 103c0 58 51 103 113 103s111 -46 111 -103s-49 -103 -111 -103zM260 114c0 -38 -15 -75 -46 -162c-25 -67 -52 -147 -56 -155h-96l63 214c-53 9 -98 52 -98 108c0 62 53 107 118 107c59 0 115 -39 115 -112z" />
    <glyph glyph-name="ellipsis.ss01" horiz-adv-x="937" 
d="M143 0c-62 0 -116 48 -116 111c0 58 54 106 116 106c64 0 117 -48 117 -106c0 -63 -53 -111 -117 -111zM460 0c-62 0 -116 48 -116 111c0 58 54 106 116 106c64 0 117 -48 117 -106c0 -63 -53 -111 -117 -111zM774 0c-62 0 -116 48 -116 111c0 58 54 106 116 106
c64 0 117 -48 117 -106c0 -63 -53 -111 -117 -111z" />
    <glyph glyph-name="exclam.ss01" horiz-adv-x="349" 
d="M91 272l-21 488h210l-21 -488h-168zM174 0c-62 0 -116 48 -116 111c0 58 54 106 116 106c64 0 117 -48 117 -106c0 -63 -53 -111 -117 -111z" />
    <glyph glyph-name="exclamdown.ss01" horiz-adv-x="349" 
d="M174 760c64 0 117 -48 117 -111c0 -58 -53 -106 -117 -106c-62 0 -116 48 -116 106c0 63 54 111 116 111zM91 488h168l21 -488h-210z" />
    <glyph glyph-name="question.ss01" horiz-adv-x="780" 
d="M289 241v9c0 89 48 131 99 175c82 70 119 80 119 106c0 39 -50 65 -116 65c-93 0 -137 -58 -130 -129h-210c-12 178 113 309 344 309c194 0 332 -89 332 -219c0 -99 -93 -160 -168 -209c-34 -23 -61 -46 -73 -70c-5 -12 -9 -25 -9 -37h-188zM381 0
c-62 0 -115 48 -115 111c0 58 53 106 115 106c65 0 118 -48 118 -106c0 -63 -53 -111 -118 -111z" />
    <glyph glyph-name="questiondown.ss01" horiz-adv-x="780" 
d="M394 760c63 0 117 -48 117 -111c0 -58 -54 -106 -117 -106c-64 0 -117 48 -117 106c0 63 53 111 117 111zM491 519v-9c0 -89 -48 -131 -100 -175c-82 -70 -118 -80 -118 -106c0 -39 49 -65 117 -65c92 0 136 58 128 129h211c12 -178 -114 -309 -345 -309
c-193 0 -331 89 -331 219c0 99 92 160 167 209c34 23 59 48 72 70c6 12 10 25 10 37h189z" />
    <glyph glyph-name="parenleft" unicode="(" horiz-adv-x="426" 
d="M209 -116c-204 275 -204 549 0 824h190c-180 -275 -180 -549 0 -824h-190z" />
    <glyph glyph-name="parenright" unicode=")" horiz-adv-x="426" 
d="M217 -116h-190c180 275 180 549 0 824h190c204 -275 204 -549 0 -824z" />
    <glyph glyph-name="braceleft" unicode="{" horiz-adv-x="494" 
d="M368 -116c-214 0 -253 95 -254 217c-1 79 -2 91 -74 91v207c72 0 73 12 74 90c2 122 40 217 254 217h79v-162h-37c-131 0 -120 -95 -120 -146c-1 -48 -14 -74 -75 -87v-32c63 -13 73 -40 75 -87c1 -55 -10 -146 120 -146h37v-162h-79z" />
    <glyph glyph-name="braceright" unicode="}" horiz-adv-x="494" 
d="M127 -116h-80v162h37c130 0 121 91 121 146c0 47 11 74 74 87v32c-62 13 -72 39 -74 87c-2 51 10 146 -121 146h-37v162h80c213 0 251 -95 252 -217c1 -78 3 -90 75 -90v-207c-72 0 -74 -12 -75 -91c-1 -122 -39 -217 -252 -217z" />
    <glyph glyph-name="bracketleft" unicode="[" horiz-adv-x="504" 
d="M455 529h-185v-466h185v-179h-392v824h392v-179z" />
    <glyph glyph-name="bracketright" unicode="]" horiz-adv-x="504" 
d="M49 -116v179h184v466h-184v179h391v-824h-391z" />
    <glyph glyph-name="hyphen" unicode="-" horiz-adv-x="560" 
d="M520 185h-480v166h480v-166z" />
    <glyph glyph-name="endash" unicode="&#x2013;" horiz-adv-x="783" 
d="M83 185v166h618v-166h-618z" />
    <glyph glyph-name="emdash" unicode="&#x2014;" horiz-adv-x="1365" 
d="M83 351h1200v-166h-1200v166z" />
    <glyph glyph-name="underscore" unicode="_" horiz-adv-x="957" 
d="M119 -219v149h720v-149h-720z" />
    <glyph glyph-name="quotesinglbase" unicode="&#x201a;" horiz-adv-x="277" 
d="M63 -175l66 175h-83v175h185v-175l-85 -175h-83z" />
    <glyph glyph-name="quotedblbase" unicode="&#x201e;" horiz-adv-x="514" 
d="M63 -175l66 175h-83v175h185v-175l-85 -175h-83zM300 -175l66 175h-83v175h184v-175l-84 -175h-83z" />
    <glyph glyph-name="quotedblleft" unicode="&#x201c;" horiz-adv-x="514" 
d="M46 401v175l85 175h83l-67 -175h84v-175h-185zM283 401v175l84 175h84l-67 -175h83v-175h-184z" />
    <glyph glyph-name="quotedblright" unicode="&#x201d;" horiz-adv-x="514" 
d="M63 401l66 175h-83v175h185v-175l-85 -175h-83zM300 401l66 175h-83v175h184v-175l-84 -175h-83z" />
    <glyph glyph-name="quoteleft" unicode="&#x2018;" horiz-adv-x="277" 
d="M214 751l-67 -175h84v-175h-185v175l85 175h83z" />
    <glyph glyph-name="quoteright" unicode="&#x2019;" horiz-adv-x="277" 
d="M63 401l66 175h-83v175h185v-175l-85 -175h-83z" />
    <glyph glyph-name="guillemotleft" unicode="&#xab;" horiz-adv-x="837" 
d="M462 487l-216 -222l216 -222h-218l-216 222l216 222h218zM810 487l-216 -222l216 -222h-218l-216 222l216 222h218z" />
    <glyph glyph-name="guillemotright" unicode="&#xbb;" horiz-adv-x="837" 
d="M27 43l216 222l-216 222h218l216 -222l-216 -222h-218zM375 43l216 222l-216 222h218l216 -222l-216 -222h-218z" />
    <glyph glyph-name="guilsinglleft" unicode="&#x2039;" horiz-adv-x="488" 
d="M462 487l-216 -222l216 -222h-218l-216 222l216 222h218z" />
    <glyph glyph-name="guilsinglright" unicode="&#x203a;" horiz-adv-x="488" 
d="M27 487h218l216 -222l-216 -222h-218l216 222z" />
    <glyph glyph-name="quotedbl" unicode="&#x22;" horiz-adv-x="682" 
d="M144 425l-34 182v144h187v-144l-34 -182h-119zM418 425l-33 182v144h186v-144l-33 -182h-120z" />
    <glyph glyph-name="quotesingle" unicode="'" horiz-adv-x="407" 
d="M144 425l-34 182v144h187v-144l-34 -182h-119z" />
    <glyph glyph-name="space" unicode=" " horiz-adv-x="299" 
 />
    <glyph glyph-name="uni2009" unicode="&#x2009;" horiz-adv-x="221" 
 />
    <glyph glyph-name="cent" unicode="&#xa2;" horiz-adv-x="630" 
d="M179 0v129c-101 41 -157 121 -157 224c0 101 56 182 157 224v131h232v-122c103 -33 172 -103 180 -193h-187c-8 43 -45 69 -94 69c-59 0 -102 -30 -102 -109c0 -80 43 -110 102 -110c49 0 89 25 96 79h185c-6 -96 -74 -170 -180 -204v-118h-232z" />
    <glyph glyph-name="currency" unicode="&#xa4;" horiz-adv-x="807" 
d="M185 22l-163 164l100 85c-13 22 -18 46 -18 72c0 32 8 62 21 89l-103 90l163 164l107 -98c24 5 60 12 109 12c51 0 89 -7 112 -11l109 97l163 -164l-107 -89c13 -27 20 -58 20 -90c0 -26 -5 -51 -16 -74l102 -83l-162 -164l-94 78c-37 -16 -79 -19 -127 -19
c-45 0 -88 3 -123 19zM401 232c61 0 111 30 111 111c0 79 -50 109 -111 109s-111 -30 -111 -109c0 -81 50 -111 111 -111z" />
    <glyph glyph-name="dollar" unicode="$" horiz-adv-x="858" 
d="M825 222c0 -125 -109 -202 -291 -221v-148h-210v156c-189 33 -280 124 -292 243h210c13 -15 34 -55 82 -72v129c-161 40 -276 99 -276 226c0 129 119 191 276 210v108h210v-115c156 -25 264 -123 272 -268h-212c-7 18 -27 54 -60 70v-101c172 -38 291 -85 291 -217z
M257 530c0 -10 21 -23 67 -32v67c-37 1 -67 -23 -67 -35zM534 168c45 -1 80 25 80 42c0 12 -18 24 -80 36v-78z" />
    <glyph glyph-name="Euro" unicode="&#x20ac;" horiz-adv-x="822" 
d="M650 -16c-225 0 -378 79 -433 240h-187l29 98h138c-1 13 -3 25 -3 39c0 8 0 15 1 23h-116l29 97h100c48 173 204 257 442 257c42 0 101 -3 144 -16v-160c-30 4 -79 8 -120 8c-134 0 -208 -30 -240 -89h234l-28 -97h-226c-2 -7 -2 -15 -2 -23c0 -14 1 -26 3 -39h205
l-28 -98h-145c38 -46 109 -72 226 -72c42 0 91 4 121 8v-160c-43 -13 -102 -16 -144 -16z" />
    <glyph glyph-name="sterling" unicode="&#xa3;" horiz-adv-x="638" 
d="M32 -1v170c43 2 120 33 150 74c10 17 16 36 17 55h-166v122h108c-35 29 -70 64 -70 128c0 108 81 190 343 190c72 0 123 -7 176 -24v-176c-23 8 -87 28 -162 28c-84 0 -158 -25 -158 -60c0 -26 35 -54 65 -86h211v-122h-169c0 -28 -5 -55 -15 -77
c-17 -28 -58 -48 -101 -52v-2h390v-168h-619z" />
    <glyph glyph-name="yen" unicode="&#xa5;" horiz-adv-x="882" 
d="M886 724l-279 -365h89v-138h-154v-24h154v-138h-154v-59h-201v59h-154v138h154v24h-154v138h89l-280 365h220l225 -294l226 294h219z" />
    <glyph glyph-name="cent.tf" horiz-adv-x="867" 
d="M311 0v129c-146 41 -226 121 -226 224c0 102 81 183 226 225v131h232v-122c138 -33 232 -103 241 -193h-187c-16 43 -71 69 -154 69c-107 0 -170 -30 -170 -110s62 -110 170 -110c83 0 140 25 155 79h187c-11 -96 -96 -170 -242 -204v-118h-232z" />
    <glyph glyph-name="currency.tf" horiz-adv-x="866" 
d="M208 22l-163 164l101 85c-13 22 -19 46 -19 73c0 32 8 62 23 89l-105 90l163 164l108 -98c26 5 63 12 114 12c53 0 92 -7 118 -11l110 97l163 -164l-109 -89c14 -27 21 -58 21 -90c0 -27 -6 -52 -17 -75l104 -83l-162 -164l-97 78c-37 -16 -81 -19 -131 -19
c-46 0 -90 3 -127 19zM430 232c64 0 117 30 117 112c0 79 -53 109 -117 109c-65 0 -117 -30 -117 -109c0 -82 52 -112 117 -112z" />
    <glyph glyph-name="dollar.tf" horiz-adv-x="866" 
d="M825 222c0 -125 -109 -202 -291 -221v-148h-210v156c-189 33 -280 124 -292 243h210c13 -15 34 -55 82 -72v129c-161 40 -276 99 -276 226c0 129 119 191 276 210v108h210v-115c156 -25 264 -123 272 -268h-212c-7 18 -27 54 -60 70v-101c172 -38 291 -85 291 -217z
M257 530c0 -10 21 -23 67 -32v67c-37 1 -67 -23 -67 -35zM534 168c45 -1 80 25 80 42c0 12 -18 24 -80 36v-78z" />
    <glyph glyph-name="Euro.tf" horiz-adv-x="867" 
d="M671 -16c-223 0 -376 79 -430 240h-187l29 98h138c-2 13 -3 25 -3 39v24h-115l29 97h100c46 173 203 257 439 257c43 0 102 -3 146 -16v-160c-31 4 -79 8 -122 8c-132 0 -206 -30 -239 -89h235l-28 -97h-227c-1 -7 -1 -16 -1 -24c0 -14 1 -26 4 -39h204l-29 -98h-145
c39 -46 110 -72 226 -72c43 0 91 4 122 8v-160c-44 -13 -103 -16 -146 -16z" />
    <glyph glyph-name="sterling.tf" horiz-adv-x="867" 
d="M92 -1v170c64 2 174 34 199 74c8 17 12 36 9 55h-207v121h137c-43 30 -90 65 -90 129c0 108 84 190 397 190c83 0 142 -7 204 -24v-176c-27 8 -101 28 -192 28c-102 0 -208 -25 -208 -60c0 -26 47 -54 87 -87h261v-121h-211c4 -28 0 -55 -7 -77c-13 -28 -72 -48 -131 -52
v-2h472v-168h-720z" />
    <glyph glyph-name="yen.tf" horiz-adv-x="865" 
d="M859 724l-264 -365h82v-138h-145v-24h145v-138h-145v-59h-198v59h-145v138h145v24h-145v138h82l-265 365h216l211 -294l211 294h215z" />
    </font>
</defs>
</svg>
